<?xml version="1.0"?>

<svg
   xmlns="http://www.w3.org/2000/svg"
   viewBox="0 0 64 54"
   >
  
  <g
     id="layer1"
     transform="translate(-43.632667,-94.719621)">
    <g
       id="g1945">
      <path
         style="font-style:normal;font-variant:normal;font-weight:normal;font-stretch:normal;letter-spacing:normal;word-spacing:normal;text-anchor:start;fill:#000000;fill-opacity:1;fill-rule:evenodd;stroke:#000000;stroke-width:0;stroke-linecap:butt;stroke-linejoin:miter;stroke-miterlimit:10.43299961;stroke-dasharray:none;stroke-dashoffset:0;stroke-opacity:1"
         
         d="m 67.290502,96.834604 0.05132,-0.01756 0.04997,-0.02026 0.04997,-0.02026 0.04727,-0.02296 0.04727,-0.02431 0.04592,-0.02566 0.04457,-0.02701 0.04322,-0.02971 0.04187,-0.02971 0.04052,-0.03106 0.04052,-0.03241 0.03782,-0.03376 0.03646,-0.03511 0.03511,-0.03646 0.03376,-0.03647 0.03106,-0.03917 0.03106,-0.03917 0.02836,-0.04052 0.02701,-0.04052 0.02566,-0.04322 0.02296,-0.04322 0.02296,-0.04322 0.01891,-0.04457 0.01756,-0.04592 0.01621,-0.04592 0.01486,-0.04592 0.0108,-0.04727 0.01081,-0.04862 0.0081,-0.04862 0.0054,-0.04862 0.0027,-0.04862 0.0014,-0.04997 c 0,-0.551027 -0.592894,-0.929183 -1.23846,-0.929183 -0.67933,0 -1.189841,0.405167 -1.189841,0.915678 0,0.222841 0.147211,0.351144 0.343042,0.351144 0.206635,0 0.341691,-0.148561 0.341691,-0.344392 0,-0.334938 -0.316031,-0.334938 -0.414621,-0.334938 0.206635,-0.329535 0.650968,-0.418672 0.894068,-0.418672 0.274163,0 0.645566,0.148561 0.645566,0.75361 0,0.08238 -0.01486,0.471345 -0.189078,0.768467 -0.201233,0.322783 -0.430827,0.341691 -0.598296,0.349794 -0.05402,0.0068 -0.214739,0.01891 -0.263359,0.01891 -0.05267,0.0068 -0.101292,0.01351 -0.101292,0.08103 0,0.07293 0.04862,0.07293 0.162067,0.07293 h 0.295772 c 0.553728,0 0.802231,0.457839 0.802231,1.119612 0,0.912976 -0.464592,1.108806 -0.761714,1.108806 -0.289019,0 -0.794127,-0.113446 -1.027774,-0.51051 0.233647,0.03241 0.442983,-0.116148 0.442983,-0.371403 0,-0.24175 -0.180975,-0.375455 -0.378156,-0.375455 -0.159366,0 -0.375455,0.09319 -0.375455,0.390311 0,0.611802 0.625308,1.054785 1.35866,1.054785 0.821138,0 1.43294,-0.611802 1.43294,-1.296534 0,-0.553729 -0.424074,-1.076394 -1.122312,-1.218202 z"
         id="path993" />
      <path
         style="font-style:normal;font-variant:normal;font-weight:normal;font-stretch:normal;letter-spacing:normal;word-spacing:normal;text-anchor:start;fill:#000000;fill-opacity:1;fill-rule:evenodd;stroke:#000000;stroke-width:0;stroke-linecap:butt;stroke-linejoin:miter;stroke-miterlimit:10.43299961;stroke-dasharray:none;stroke-dashoffset:0;stroke-opacity:1"
         
         d="m 70.957263,97.169542 0.0041,-0.01756 0.0041,-0.02026 0.0054,-0.02161 0.0068,-0.02431 0.0068,-0.02566 0.0081,-0.02836 0.0095,-0.02971 0.0095,-0.02971 0.0108,-0.03106 0.01216,-0.03241 0.01215,-0.03376 0.01486,-0.03241 0.01486,-0.03376 0.01621,-0.03376 0.01756,-0.03376 0.01756,-0.03376 0.02026,-0.03241 0.02161,-0.03241 0.02161,-0.03106 0.02431,-0.02971 0.02566,-0.02971 0.02701,-0.02701 0.02836,-0.02566 0.02971,-0.02431 0.03106,-0.02161 0.03241,-0.01891 0.01756,-0.0095 0.01756,-0.0081 0.01756,-0.0068 0.01891,-0.0068 0.01891,-0.0068 0.01891,-0.0054 0.02026,-0.0041 0.01891,-0.0041 0.02161,-0.0027 0.02026,-0.0027 0.02161,-0.0014 h 0.02161 c 0.03376,0 0.19448,0 0.336289,0.08644 -0.187728,0.03376 -0.322783,0.202583 -0.322783,0.363299 0,0.106694 0.07293,0.236348 0.255255,0.236348 0.14721,0 0.361949,-0.1202 0.361949,-0.390311 0,-0.351145 -0.395713,-0.442983 -0.623957,-0.442983 -0.390311,0 -0.626658,0.356547 -0.706341,0.510511 -0.16882,-0.442983 -0.532119,-0.510511 -0.7266,-0.510511 -0.700938,0 -1.084496,0.867058 -1.084496,1.035877 0,0.06753 0.06753,0.06753 0.08238,0.06753 0.05267,0 0.07428,-0.01486 0.08644,-0.07428 0.228244,-0.713093 0.672577,-0.881913 0.900821,-0.881913 0.129654,0 0.3633,0.05942 0.3633,0.449735 0,0.207986 -0.114797,0.660422 -0.3633,1.60176 -0.106694,0.417322 -0.34169,0.699588 -0.638813,0.699588 -0.04052,0 -0.19448,0 -0.336288,-0.08779 0.168819,-0.03241 0.31738,-0.172871 0.31738,-0.363299 0,-0.180975 -0.148561,-0.233647 -0.249853,-0.233647 -0.202583,0 -0.371403,0.174222 -0.371403,0.390311 0,0.307927 0.337639,0.442983 0.633411,0.442983 0.445684,0 0.686083,-0.471345 0.707692,-0.510511 0.07968,0.248503 0.321432,0.510511 0.725249,0.510511 0.694186,0 1.077744,-0.867058 1.077744,-1.035877 0,-0.06753 -0.06078,-0.06753 -0.08103,-0.06753 -0.05942,0 -0.07428,0.02701 -0.08779,0.07293 -0.221491,0.719847 -0.67933,0.881913 -0.894068,0.881913 -0.263359,0 -0.371403,-0.214738 -0.371403,-0.444333 0,-0.148561 0.04052,-0.295771 0.116148,-0.591543 z"
         id="path995" />
      <path
         style="font-style:normal;font-variant:normal;font-weight:normal;font-stretch:normal;letter-spacing:normal;word-spacing:normal;text-anchor:start;fill:#000000;fill-opacity:1;fill-rule:evenodd;stroke:#000000;stroke-width:0;stroke-linecap:butt;stroke-linejoin:miter;stroke-miterlimit:10.43299961;stroke-dasharray:none;stroke-dashoffset:0;stroke-opacity:1"
         
         d="m 78.490653,97.655742 h 0.0216 0.0216 l 0.0216,-0.0014 h 0.009 l 0.0108,-0.0014 h 0.0108 l 0.009,-0.0014 0.009,-0.0014 0.0108,-0.0014 0.009,-0.0027 0.008,-0.0027 0.009,-0.0027 0.008,-0.0027 0.008,-0.0027 0.008,-0.0041 0.008,-0.0041 0.007,-0.0054 0.007,-0.0041 0.007,-0.0068 0.005,-0.0054 0.005,-0.0068 0.001,-0.0041 0.003,-0.0041 0.003,-0.0041 0.001,-0.0041 0.003,-0.0041 10e-4,-0.0041 0.001,-0.0054 0.001,-0.0041 10e-4,-0.0054 0.001,-0.0054 v -0.0054 l 0.001,-0.0054 10e-4,-0.0054 v -0.0054 -0.0068 -0.0054 c 0,-0.135055 -0.1229,-0.135055 -0.23635,-0.135055 h -3.639736 c -0.114798,0 -0.234997,0 -0.234997,0.135055 0,0.135056 0.120199,0.135056 0.234997,0.135056 z"
         id="path997" />
      <path
         style="font-style:normal;font-variant:normal;font-weight:normal;font-stretch:normal;letter-spacing:normal;word-spacing:normal;text-anchor:start;fill:#000000;fill-opacity:1;fill-rule:evenodd;stroke:#000000;stroke-width:0;stroke-linecap:butt;stroke-linejoin:miter;stroke-miterlimit:10.43299961;stroke-dasharray:none;stroke-dashoffset:0;stroke-opacity:1"
         
         d="m 81.637435,98.683515 0.713087,-0.692835 c 1.049384,-0.927832 1.454541,-1.291132 1.454541,-1.963709 0,-0.768467 -0.606397,-1.307339 -1.426171,-1.307339 -0.763067,0 -1.260064,0.621256 -1.260064,1.219553 0,0.376805 0.33764,0.376805 0.35654,0.376805 0.116147,0 0.349797,-0.08103 0.349797,-0.356547 0,-0.175572 -0.1202,-0.351145 -0.356547,-0.351145 -0.0527,0 -0.0675,0 -0.0864,0.0068 0.153957,-0.43758 0.517257,-0.686082 0.907564,-0.686082 0.611797,0 0.903514,0.546975 0.903514,1.098002 0,0.537521 -0.337637,1.069641 -0.707684,1.486963 l -1.291124,1.439693 c -0.0756,0.07293 -0.0756,0.08644 -0.0756,0.248502 h 2.495815 l 0.19042,-1.170932 h -0.16882 c -0.0338,0.202583 -0.0797,0.498355 -0.147207,0.599647 -0.05,0.05267 -0.492947,0.05267 -0.640157,0.05267 z"
         id="path999" />
      <polyline
         transform="matrix(0.13505564,0,0,-0.13505564,-20.199132,154.06173)"
         style="font-style:normal;font-variant:normal;font-weight:normal;font-stretch:normal;letter-spacing:normal;word-spacing:normal;text-anchor:start;fill:#000000;fill-opacity:1;fill-rule:nonzero;stroke:#000000;stroke-width:0;stroke-linecap:butt;stroke-linejoin:miter;stroke-miterlimit:10.43299961;stroke-dasharray:none;stroke-dashoffset:0;stroke-opacity:1"
         points="593,386 929.72,386 929.72,388.04 593,388.04 "
         id="polyline1001" />
      <path
         style="font-style:normal;font-variant:normal;font-weight:normal;font-stretch:normal;letter-spacing:normal;word-spacing:normal;text-anchor:start;fill:#000000;fill-opacity:1;fill-rule:evenodd;stroke:#000000;stroke-width:0;stroke-linecap:butt;stroke-linejoin:miter;stroke-miterlimit:10.43299961;stroke-dasharray:none;stroke-dashoffset:0;stroke-opacity:1"
         
         d="m 45.685407,107.33113 0.0041,-0.0176 0.0054,-0.0203 0.0054,-0.0216 0.0054,-0.0243 0.0081,-0.027 0.0081,-0.027 0.0081,-0.0297 0.0095,-0.0297 0.0108,-0.0324 0.01215,-0.0324 0.01351,-0.0324 0.01351,-0.0338 0.01486,-0.0338 0.01621,-0.0338 0.01756,-0.0338 0.01891,-0.0324 0.02026,-0.0324 0.02026,-0.0324 0.02296,-0.0311 0.02431,-0.0311 0.02431,-0.0284 0.02701,-0.027 0.02836,-0.0257 0.02971,-0.0243 0.03106,-0.0216 0.03376,-0.0189 0.01621,-0.009 0.01756,-0.008 0.01891,-0.007 0.01756,-0.007 0.01891,-0.007 0.01891,-0.005 0.02026,-0.004 0.02026,-0.004 0.02026,-0.003 0.02161,-0.003 0.02161,-0.001 h 0.02161 c 0.03376,0 0.19448,0 0.334938,0.0864 -0.187728,0.0338 -0.322783,0.20258 -0.322783,0.3633 0,0.10669 0.07428,0.23634 0.255255,0.23634 0.148561,0 0.3633,-0.12155 0.3633,-0.39166 0,-0.34979 -0.397064,-0.44298 -0.625308,-0.44298 -0.390311,0 -0.626658,0.35655 -0.706341,0.51051 -0.168819,-0.44298 -0.532119,-0.51051 -0.725249,-0.51051 -0.700938,0 -1.085847,0.86841 -1.085847,1.03723 0,0.0675 0.06753,0.0675 0.08238,0.0675 0.05267,0 0.07428,-0.0149 0.08644,-0.0743 0.228245,-0.71309 0.673928,-0.88191 0.902172,-0.88191 0.128303,0 0.361949,0.0581 0.361949,0.44974 0,0.20798 -0.113446,0.66042 -0.361949,1.60041 -0.108044,0.41867 -0.343041,0.70093 -0.640164,0.70093 -0.04052,0 -0.19448,0 -0.334938,-0.0878 0.16882,-0.0324 0.316031,-0.17422 0.316031,-0.3633 0,-0.18233 -0.147211,-0.235 -0.248503,-0.235 -0.202583,0 -0.371403,0.17557 -0.371403,0.39031 0,0.30928 0.337639,0.44434 0.632061,0.44434 0.445683,0 0.686082,-0.47135 0.707691,-0.51186 0.07968,0.24985 0.322783,0.51186 0.725249,0.51186 0.694186,0 1.079095,-0.86841 1.079095,-1.03723 0,-0.0675 -0.06077,-0.0675 -0.08238,-0.0675 -0.05943,0 -0.07428,0.0284 -0.08644,0.0743 -0.221491,0.71985 -0.67933,0.88191 -0.895419,0.88191 -0.263358,0 -0.371403,-0.21473 -0.371403,-0.44433 0,-0.14856 0.04052,-0.29577 0.116148,-0.59154 z"
         id="path1003" />
      <path
         style="font-style:normal;font-variant:normal;font-weight:normal;font-stretch:normal;letter-spacing:normal;word-spacing:normal;text-anchor:start;fill:#000000;fill-opacity:1;fill-rule:evenodd;stroke:#000000;stroke-width:0;stroke-linecap:butt;stroke-linejoin:miter;stroke-miterlimit:10.43299961;stroke-dasharray:none;stroke-dashoffset:0;stroke-opacity:1"
         
         d="m 51.537368,107.81733 h 1.878624 c 0.09319,0 0.221491,0 0.221491,-0.13506 0,-0.13505 -0.128303,-0.13505 -0.221491,-0.13505 h -1.878624 v -1.88538 c 0,-0.0918 0,-0.22149 -0.135056,-0.22149 -0.132354,0 -0.132354,0.12965 -0.132354,0.22149 v 1.88538 h -1.885377 c -0.09454,0 -0.221491,0 -0.221491,0.13505 0,0.13506 0.126952,0.13506 0.221491,0.13506 h 1.885377 v 1.88132 c 0,0.0959 0,0.2242 0.132354,0.2242 0.135056,0 0.135056,-0.12831 0.135056,-0.2242 z"
         id="path1005" />
      <path
         style="font-style:normal;font-variant:normal;font-weight:normal;font-stretch:normal;letter-spacing:normal;word-spacing:normal;text-anchor:start;fill:#000000;fill-opacity:1;fill-rule:evenodd;stroke:#000000;stroke-width:0;stroke-linecap:butt;stroke-linejoin:miter;stroke-miterlimit:10.43299961;stroke-dasharray:none;stroke-dashoffset:0;stroke-opacity:1"
         
         d="m 56.365607,108.8451 0.713094,-0.69283 c 1.049382,-0.92784 1.454549,-1.29114 1.454549,-1.96506 0,-0.76712 -0.6064,-1.30599 -1.426188,-1.30599 -0.761713,0 -1.260069,0.62125 -1.260069,1.21955 0,0.37546 0.337639,0.37546 0.356547,0.37546 0.116148,0 0.349794,-0.0797 0.349794,-0.35655 0,-0.17422 -0.120199,-0.3498 -0.356547,-0.3498 -0.05267,0 -0.06753,0 -0.08644,0.007 0.153963,-0.43758 0.517263,-0.68609 0.907574,-0.68609 0.611802,0 0.903522,0.54698 0.903522,1.09666 0,0.53887 -0.337639,1.07099 -0.707692,1.48831 l -1.291132,1.43969 c -0.07563,0.0729 -0.07563,0.0864 -0.07563,0.24851 h 2.495829 l 0.190428,-1.17094 h -0.16882 c -0.03376,0.20259 -0.07968,0.49701 -0.14721,0.5983 -0.04862,0.054 -0.492953,0.054 -0.640164,0.054 z"
         id="path1007" />
      <path
         style="font-style:normal;font-variant:normal;font-weight:normal;font-stretch:normal;letter-spacing:normal;word-spacing:normal;text-anchor:start;fill:#000000;fill-opacity:1;fill-rule:evenodd;stroke:#000000;stroke-width:0;stroke-linecap:butt;stroke-linejoin:miter;stroke-miterlimit:10.43299961;stroke-dasharray:none;stroke-dashoffset:0;stroke-opacity:1"
         
         d="m 61.60685,108.80897 -0.0014,-0.32369 -0.0068,-0.33798 -0.01351,-0.35226 -0.01891,-0.36179 -0.02566,-0.37367 -0.03376,-0.38319 -0.04187,-0.38796 -0.05267,-0.39512 -0.02971,-0.19753 -0.03241,-0.19994 -0.03511,-0.19994 -0.03917,-0.19992 -0.04052,-0.19994 -0.04457,-0.20232 -0.04727,-0.1999 -0.05132,-0.19994 -0.05402,-0.19756 -0.05807,-0.19993 -0.06077,-0.19517 -0.06483,-0.19756 -0.06888,-0.19278 -0.07293,-0.19279 -0.07563,-0.19279 -0.08103,-0.18804 c -0.06753,-0.14046 -0.503758,-1.04487 -0.623957,-1.04487 -0.03376,0 -0.08238,0.0262 -0.08238,0.11893 0,0.0476 0.01486,0.0855 0.03917,0.11893 0.322783,0.61645 0.761714,1.57563 1.035877,3.46309 0.156664,1.0782 0.21879,2.30155 0.21879,3.40119 0,1.19721 -0.06213,2.41105 -0.236347,3.57021 -0.256606,1.66368 -0.652319,2.61099 -0.996711,3.27266 -0.06077,0.10945 -0.06077,0.13091 -0.06077,0.15702 0,0.0929 0.04862,0.11892 0.08238,0.11892 0.09859,0 0.469994,-0.72593 0.549676,-0.89254 0.686083,-1.43286 1.125014,-3.56783 1.125014,-6.21214 z"
         id="path1009" />
      <path
         style="font-style:normal;font-variant:normal;font-weight:normal;font-stretch:normal;letter-spacing:normal;word-spacing:normal;text-anchor:start;fill:#000000;fill-opacity:1;fill-rule:evenodd;stroke:#000000;stroke-width:0;stroke-linecap:butt;stroke-linejoin:miter;stroke-miterlimit:10.43299961;stroke-dasharray:none;stroke-dashoffset:0;stroke-opacity:1"
         
         d="m 67.368149,106.99619 0.05132,-0.0176 0.04997,-0.0203 0.04997,-0.0216 0.04727,-0.0216 0.04727,-0.0243 0.04592,-0.0257 0.04457,-0.0284 0.04322,-0.0284 0.04187,-0.0297 0.04187,-0.0311 0.03917,-0.0324 0.03781,-0.0338 0.03647,-0.0351 0.03511,-0.0365 0.03376,-0.0378 0.03241,-0.0378 0.02971,-0.0392 0.02836,-0.0405 0.02701,-0.0419 0.02566,-0.0419 0.02431,-0.0432 0.02161,-0.0432 0.01891,-0.0446 0.01891,-0.0459 0.01486,-0.0459 0.01486,-0.0473 0.01215,-0.0473 0.0095,-0.0473 0.0081,-0.0486 0.0054,-0.0486 0.0027,-0.05 0.0014,-0.0486 c 0,-0.55103 -0.592895,-0.92918 -1.238461,-0.92918 -0.679329,0 -1.18984,0.40517 -1.18984,0.91568 0,0.22149 0.147211,0.35114 0.343042,0.35114 0.206635,0 0.34169,-0.14856 0.34169,-0.34439 0,-0.33494 -0.31603,-0.33494 -0.41462,-0.33494 0.206635,-0.32954 0.650968,-0.41867 0.894068,-0.41867 0.274163,0 0.645566,0.14856 0.645566,0.75361 0,0.0824 -0.01486,0.46999 -0.189078,0.76847 -0.201233,0.32278 -0.430828,0.34169 -0.598297,0.34979 -0.05402,0.007 -0.214738,0.0189 -0.263358,0.0189 -0.05267,0.007 -0.101292,0.0135 -0.101292,0.081 0,0.0729 0.04862,0.0729 0.162067,0.0729 h 0.295772 c 0.553728,0 0.80223,0.45784 0.80223,1.11826 0,0.91433 -0.464591,1.11016 -0.761713,1.11016 -0.28902,0 -0.792777,-0.11345 -1.027774,-0.51051 0.234997,0.0324 0.442983,-0.11615 0.442983,-0.3714 0,-0.2431 -0.180975,-0.37546 -0.376806,-0.37546 -0.160716,0 -0.376805,0.0932 -0.376805,0.39031 0,0.6118 0.625308,1.05479 1.36001,1.05479 0.819788,0 1.43159,-0.61181 1.43159,-1.29789 0,-0.55238 -0.422724,-1.07639 -1.122312,-1.21685 z"
         id="path1011" />
      <path
         style="font-style:normal;font-variant:normal;font-weight:normal;font-stretch:normal;letter-spacing:normal;word-spacing:normal;text-anchor:start;fill:#000000;fill-opacity:1;fill-rule:evenodd;stroke:#000000;stroke-width:0;stroke-linecap:butt;stroke-linejoin:miter;stroke-miterlimit:10.43299961;stroke-dasharray:none;stroke-dashoffset:0;stroke-opacity:1"
         
         d="m 71.034909,107.33113 0.0041,-0.0176 0.0041,-0.0203 0.0054,-0.0216 0.0068,-0.0243 0.0068,-0.027 0.0081,-0.027 0.0095,-0.0297 0.0095,-0.0297 0.0108,-0.0324 0.01215,-0.0324 0.01216,-0.0324 0.01486,-0.0338 0.01486,-0.0338 0.01621,-0.0338 0.01756,-0.0338 0.01756,-0.0324 0.02026,-0.0324 0.02161,-0.0324 0.02296,-0.0311 0.02296,-0.0311 0.02566,-0.0284 0.02701,-0.027 0.02836,-0.0257 0.02971,-0.0243 0.03106,-0.0216 0.03376,-0.0189 0.01621,-0.009 0.01756,-0.008 0.01756,-0.007 0.01891,-0.007 0.01891,-0.007 0.01891,-0.005 0.02026,-0.004 0.02026,-0.004 0.02026,-0.003 0.02026,-0.003 0.02161,-0.001 h 0.02161 c 0.03376,0 0.19448,0 0.336288,0.0864 -0.187727,0.0338 -0.322783,0.20258 -0.322783,0.3633 0,0.10669 0.07428,0.23634 0.255256,0.23634 0.14721,0 0.363299,-0.12155 0.363299,-0.39166 0,-0.34979 -0.397063,-0.44298 -0.625307,-0.44298 -0.390311,0 -0.626659,0.35655 -0.706341,0.51051 -0.16882,-0.44298 -0.53212,-0.51051 -0.7266,-0.51051 -0.700939,0 -1.084497,0.86841 -1.084497,1.03723 0,0.0675 0.06753,0.0675 0.08238,0.0675 0.05267,0 0.07428,-0.0149 0.08644,-0.0743 0.228244,-0.71309 0.673928,-0.88191 0.900821,-0.88191 0.129654,0 0.3633,0.0581 0.3633,0.44974 0,0.20798 -0.113447,0.66042 -0.3633,1.60041 -0.106694,0.41867 -0.341691,0.70093 -0.638813,0.70093 -0.04052,0 -0.19448,0 -0.336289,-0.0878 0.16882,-0.0324 0.317381,-0.17422 0.317381,-0.3633 0,-0.18233 -0.148561,-0.235 -0.249853,-0.235 -0.202583,0 -0.371403,0.17557 -0.371403,0.39031 0,0.30928 0.337639,0.44434 0.633411,0.44434 0.445684,0 0.686083,-0.47135 0.707692,-0.51186 0.07968,0.24985 0.322783,0.51186 0.725248,0.51186 0.694186,0 1.079095,-0.86841 1.079095,-1.03723 0,-0.0675 -0.06213,-0.0675 -0.08238,-0.0675 -0.05942,0 -0.07428,0.0284 -0.08644,0.0743 -0.222841,0.71985 -0.68068,0.88191 -0.895418,0.88191 -0.263359,0 -0.371403,-0.21473 -0.371403,-0.44433 0,-0.14856 0.04052,-0.29577 0.116147,-0.59154 z"
         id="path1013" />
      <path
         style="font-style:normal;font-variant:normal;font-weight:normal;font-stretch:normal;letter-spacing:normal;word-spacing:normal;text-anchor:start;fill:#000000;fill-opacity:1;fill-rule:evenodd;stroke:#000000;stroke-width:0;stroke-linecap:butt;stroke-linejoin:miter;stroke-miterlimit:10.43299961;stroke-dasharray:none;stroke-dashoffset:0;stroke-opacity:1"
         
         d="m 75.005545,106.06025 h -0.160716 c -0.0135,0.10265 -0.06077,0.38221 -0.122901,0.42813 -0.03511,0.027 -0.398414,0.027 -0.464591,0.027 H 73.39028 c 0.494303,-0.43623 0.659071,-0.56723 0.941338,-0.78872 0.348443,-0.27822 0.673927,-0.56994 0.673927,-1.01697 0,-0.56994 -0.498355,-0.91838 -1.102054,-0.91838 -0.58209,0 -0.979153,0.40922 -0.979153,0.84275 0,0.2404 0.202583,0.26336 0.251203,0.26336 0.112097,0 0.248503,-0.0797 0.248503,-0.24986 0,-0.0837 -0.03376,-0.2485 -0.278215,-0.2485 0.14586,-0.33359 0.465942,-0.43623 0.687433,-0.43623 0.471345,0 0.715795,0.36465 0.715795,0.74686 0,0.40922 -0.29172,0.7347 -0.442982,0.90352 l -1.133117,1.11961 c -0.04862,0.0432 -0.04862,0.0527 -0.04862,0.18368 h 1.939399 z"
         id="path1015" />
      <path
         style="font-style:normal;font-variant:normal;font-weight:normal;font-stretch:normal;letter-spacing:normal;word-spacing:normal;text-anchor:start;fill:#000000;fill-opacity:1;fill-rule:evenodd;stroke:#000000;stroke-width:0;stroke-linecap:butt;stroke-linejoin:miter;stroke-miterlimit:10.43299961;stroke-dasharray:none;stroke-dashoffset:0;stroke-opacity:1"
         
         d="m 79.886456,107.81733 h 1.877274 c 0.09319,0 0.221491,0 0.221491,-0.13506 0,-0.13505 -0.128303,-0.13505 -0.221491,-0.13505 h -1.877274 v -1.88538 c 0,-0.0918 0,-0.22149 -0.135056,-0.22149 -0.133705,0 -0.133705,0.12965 -0.133705,0.22149 v 1.88538 h -1.884026 c -0.09454,0 -0.221491,0 -0.221491,0.13505 0,0.13506 0.126952,0.13506 0.221491,0.13506 h 1.884026 v 1.88132 c 0,0.0959 0,0.2242 0.133705,0.2242 0.135056,0 0.135056,-0.12831 0.135056,-0.2242 z"
         id="path1017" />
      <path
         style="font-style:normal;font-variant:normal;font-weight:normal;font-stretch:normal;letter-spacing:normal;word-spacing:normal;text-anchor:start;fill:#000000;fill-opacity:1;fill-rule:evenodd;stroke:#000000;stroke-width:0;stroke-linecap:butt;stroke-linejoin:miter;stroke-miterlimit:10.43299961;stroke-dasharray:none;stroke-dashoffset:0;stroke-opacity:1"
         
         d="m 85.837008,108.25356 v 0.58479 c 0,0.2431 -0.01351,0.31603 -0.510511,0.31603 h -0.141808 v 0.20934 c 0.276864,-0.0216 0.626658,-0.0216 0.908924,-0.0216 0.283617,0 0.640164,0 0.914327,0.0216 v -0.20934 h -0.141808 c -0.497005,0 -0.510511,-0.0729 -0.510511,-0.31603 v -0.58479 h 0.673928 v -0.20934 h -0.673928 v -3.06171 c 0,-0.13506 0,-0.17557 -0.106694,-0.17557 -0.06213,0 -0.08103,0 -0.135055,0.0824 l -2.066352,3.1549 h 0.190429 l 1.640926,-2.50798 v 2.50798 H 84.237949 84.04752 v 0.20934 z"
         id="path1019" />
      <path
         style="font-style:normal;font-variant:normal;font-weight:normal;font-stretch:normal;letter-spacing:normal;word-spacing:normal;text-anchor:start;fill:#000000;fill-opacity:1;fill-rule:evenodd;stroke:#000000;stroke-width:0;stroke-linecap:butt;stroke-linejoin:miter;stroke-miterlimit:10.43299961;stroke-dasharray:none;stroke-dashoffset:0;stroke-opacity:1"
         
         d="m 89.478108,107.33113 0.0041,-0.0176 0.0041,-0.0203 0.0054,-0.0216 0.0068,-0.0243 0.0068,-0.027 0.0081,-0.027 0.0095,-0.0297 0.0095,-0.0297 0.0108,-0.0324 0.01216,-0.0324 0.01215,-0.0324 0.01486,-0.0338 0.01486,-0.0338 0.01621,-0.0338 0.01756,-0.0338 0.01756,-0.0324 0.02026,-0.0324 0.02161,-0.0324 0.02161,-0.0311 0.02431,-0.0311 0.02566,-0.0284 0.02701,-0.027 0.02836,-0.0257 0.02971,-0.0243 0.03106,-0.0216 0.03241,-0.0189 0.01756,-0.009 0.01756,-0.008 0.01756,-0.007 0.01891,-0.007 0.01891,-0.007 0.01891,-0.005 0.02026,-0.004 0.01891,-0.004 0.02161,-0.003 0.02026,-0.003 0.02161,-0.001 h 0.02161 c 0.03376,0 0.19448,0 0.336289,0.0864 -0.187728,0.0338 -0.322783,0.20258 -0.322783,0.3633 0,0.10669 0.07293,0.23634 0.255255,0.23634 0.14721,0 0.361949,-0.12155 0.361949,-0.39166 0,-0.34979 -0.395713,-0.44298 -0.623957,-0.44298 -0.390311,0 -0.626658,0.35655 -0.706341,0.51051 -0.16882,-0.44298 -0.532119,-0.51051 -0.7266,-0.51051 -0.700938,0 -1.084496,0.86841 -1.084496,1.03723 0,0.0675 0.06753,0.0675 0.08238,0.0675 0.05267,0 0.07428,-0.0149 0.08644,-0.0743 0.228244,-0.71309 0.672577,-0.88191 0.900821,-0.88191 0.129654,0 0.3633,0.0581 0.3633,0.44974 0,0.20798 -0.114797,0.66042 -0.3633,1.60041 -0.106694,0.41867 -0.34169,0.70093 -0.638813,0.70093 -0.04052,0 -0.19448,0 -0.336288,-0.0878 0.168819,-0.0324 0.31738,-0.17422 0.31738,-0.3633 0,-0.18233 -0.148561,-0.235 -0.249853,-0.235 -0.202583,0 -0.371403,0.17557 -0.371403,0.39031 0,0.30928 0.337639,0.44434 0.633411,0.44434 0.445684,0 0.686083,-0.47135 0.707692,-0.51186 0.07968,0.24985 0.321432,0.51186 0.725249,0.51186 0.694186,0 1.077744,-0.86841 1.077744,-1.03723 0,-0.0675 -0.06078,-0.0675 -0.08103,-0.0675 -0.05942,0 -0.07428,0.0284 -0.08779,0.0743 -0.221491,0.71985 -0.67933,0.88191 -0.894068,0.88191 -0.263359,0 -0.371403,-0.21473 -0.371403,-0.44433 0,-0.14856 0.04052,-0.29577 0.116148,-0.59154 z"
         id="path1021" />
      <path
         style="font-style:normal;font-variant:normal;font-weight:normal;font-stretch:normal;letter-spacing:normal;word-spacing:normal;text-anchor:start;fill:#000000;fill-opacity:1;fill-rule:evenodd;stroke:#000000;stroke-width:0;stroke-linecap:butt;stroke-linejoin:miter;stroke-miterlimit:10.43299961;stroke-dasharray:none;stroke-dashoffset:0;stroke-opacity:1"
         
         d="m 95.330067,107.81733 h 1.877261 c 0.0932,0 0.221497,0 0.221497,-0.13506 0,-0.13505 -0.128307,-0.13505 -0.221497,-0.13505 h -1.877261 v -1.88538 c 0,-0.0918 0,-0.22149 -0.135054,-0.22149 -0.133705,0 -0.133705,0.12965 -0.133705,0.22149 v 1.88538 h -1.884026 c -0.09454,0 -0.221492,0 -0.221492,0.13505 0,0.13506 0.126953,0.13506 0.221492,0.13506 h 1.884026 v 1.88132 c 0,0.0959 0,0.2242 0.133705,0.2242 0.135054,0 0.135054,-0.12831 0.135054,-0.2242 z"
         id="path1023" />
      <path
         style="font-style:normal;font-variant:normal;font-weight:normal;font-stretch:normal;letter-spacing:normal;word-spacing:normal;text-anchor:start;fill:#000000;fill-opacity:1;fill-rule:evenodd;stroke:#000000;stroke-width:0;stroke-linecap:butt;stroke-linejoin:miter;stroke-miterlimit:10.43299961;stroke-dasharray:none;stroke-dashoffset:0;stroke-opacity:1"
         
         d="m 100.19204,107.15691 v -0.16072 c 0,-1.70305 0.8333,-1.94615 1.17769,-1.94615 0.15937,0 0.44298,0.0405 0.59019,0.27011 -0.0986,0 -0.3687,0 -0.3687,0.30252 0,0.20799 0.16207,0.30928 0.30928,0.30928 0.10804,0 0.30928,-0.0608 0.30928,-0.32278 0,-0.40517 -0.29578,-0.72795 -0.85356,-0.72795 -0.863,0 -1.770577,0.86976 -1.770577,2.35537 0,1.79759 0.780627,2.27434 1.405927,2.27434 0.74686,0 1.38703,-0.63206 1.38703,-1.51938 0,-0.8549 -0.59965,-1.50182 -1.34651,-1.50182 l -0.007,0.15532 c 0.10804,0 0.41732,0 0.62666,0.41867 0.1202,0.24715 0.1202,0.59019 0.1202,0.91973 0,0.32278 0,0.66042 -0.11345,0.90352 -0.20258,0.40246 -0.51051,0.43623 -0.66718,0.43623 v 0 c -0.42407,0 -0.6253,-0.40247 -0.66447,-0.50376 -0.1229,-0.31738 -0.1229,-0.8549 -0.1229,-0.9778 0,-0.52267 0.21609,-1.19659 0.82114,-1.19659 l 0.007,-0.15532 c -0.45649,0 -0.70499,0.34304 -0.84005,0.66718 z"
         id="path1025" />
      <path
         style="font-style:normal;font-variant:normal;font-weight:normal;font-stretch:normal;letter-spacing:normal;word-spacing:normal;text-anchor:start;fill:#ff0000;fill-opacity:1;fill-rule:evenodd;stroke:#ff0000;stroke-width:0.15875;stroke-linecap:butt;stroke-linejoin:miter;stroke-miterlimit:10.43299961;stroke-dasharray:none;stroke-dashoffset:0;stroke-opacity:1"
         
         d="m 81.386004,119.59244 h 0.02161 0.02026 l 0.02161,-10e-4 h 0.0108 l 0.01081,-0.001 h 0.0095 l 0.0108,-0.001 0.0095,-10e-4 0.0095,-0.001 0.0095,-0.003 0.0095,-0.003 0.0095,-0.003 0.0081,-0.003 0.0081,-0.003 0.0081,-0.004 0.0068,-0.004 0.0081,-0.005 0.0068,-0.004 0.0054,-0.007 0.0054,-0.005 0.0054,-0.007 0.0027,-0.004 0.0027,-0.004 0.0014,-0.004 0.0027,-0.004 0.0014,-0.004 0.0014,-0.004 0.0027,-0.005 0.0014,-0.004 0.0014,-0.005 v -0.005 l 0.0014,-0.005 0.0014,-0.005 v -0.005 -0.005 l 0.0014,-0.007 v -0.005 c 0,-0.13506 -0.122901,-0.13506 -0.236347,-0.13506 h -3.641099 c -0.113447,0 -0.233648,0 -0.233648,0.13506 0,0.13505 0.1202,0.13505 0.233648,0.13505 z"
         id="path1027" />
      <path
         style="font-style:normal;font-variant:normal;font-weight:normal;font-stretch:normal;letter-spacing:normal;word-spacing:normal;text-anchor:start;fill:#000000;fill-opacity:1;fill-rule:evenodd;stroke:#000000;stroke-width:0;stroke-linecap:butt;stroke-linejoin:miter;stroke-miterlimit:10.43299961;stroke-dasharray:none;stroke-dashoffset:0;stroke-opacity:1"
         
         d="m 67.368196,115.06712 0.05132,-0.0176 0.04997,-0.0203 0.04997,-0.0203 0.04727,-0.023 0.04727,-0.0243 0.04592,-0.0257 0.04457,-0.027 0.04322,-0.0297 0.04187,-0.0297 0.04187,-0.0311 0.03917,-0.0324 0.03781,-0.0338 0.03647,-0.0351 0.03511,-0.0365 0.03376,-0.0365 0.03241,-0.0392 0.02971,-0.0392 0.02836,-0.0405 0.02701,-0.0405 0.02566,-0.0432 0.02431,-0.0432 0.02161,-0.0432 0.01891,-0.0446 0.01891,-0.0459 0.01486,-0.0459 0.01486,-0.0459 0.01215,-0.0473 0.0095,-0.0486 0.0081,-0.0486 0.0054,-0.0486 0.0027,-0.0486 0.0014,-0.05 c 0,-0.55103 -0.592895,-0.92919 -1.238461,-0.92919 -0.679329,0 -1.18984,0.40517 -1.18984,0.91568 0,0.22284 0.147211,0.35115 0.343042,0.35115 0.206635,0 0.34169,-0.14857 0.34169,-0.3444 0,-0.33493 -0.31603,-0.33493 -0.41462,-0.33493 0.206635,-0.32954 0.650968,-0.41868 0.894068,-0.41868 0.274163,0 0.645566,0.14856 0.645566,0.75361 0,0.0824 -0.01486,0.47135 -0.189078,0.76847 -0.201233,0.32278 -0.430828,0.34169 -0.598297,0.34979 -0.05402,0.007 -0.214738,0.0189 -0.263358,0.0189 -0.05267,0.007 -0.101292,0.0135 -0.101292,0.081 0,0.0729 0.04862,0.0729 0.162067,0.0729 h 0.295772 c 0.553728,0 0.80223,0.45783 0.80223,1.11961 0,0.91297 -0.464591,1.1088 -0.761713,1.1088 -0.28902,0 -0.792777,-0.11344 -1.027774,-0.51051 0.234997,0.0324 0.442983,-0.11614 0.442983,-0.3714 0,-0.24175 -0.180975,-0.37545 -0.376806,-0.37545 -0.160716,0 -0.376805,0.0932 -0.376805,0.39031 0,0.6118 0.625308,1.05478 1.36001,1.05478 0.819788,0 1.43159,-0.6118 1.43159,-1.29653 0,-0.55373 -0.422724,-1.0764 -1.122312,-1.2182 z"
         id="path1029" />
      <path
         style="font-style:normal;font-variant:normal;font-weight:normal;font-stretch:normal;letter-spacing:normal;word-spacing:normal;text-anchor:start;fill:#000000;fill-opacity:1;fill-rule:evenodd;stroke:#000000;stroke-width:0;stroke-linecap:butt;stroke-linejoin:miter;stroke-miterlimit:10.43299961;stroke-dasharray:none;stroke-dashoffset:0;stroke-opacity:1"
         
         d="m 71.034956,115.40205 0.0041,-0.0175 0.0041,-0.0203 0.0054,-0.0216 0.0068,-0.0243 0.0068,-0.0257 0.0081,-0.0284 0.0095,-0.0297 0.0095,-0.0297 0.0108,-0.0311 0.01215,-0.0324 0.01216,-0.0338 0.01486,-0.0324 0.01486,-0.0338 0.01621,-0.0338 0.01756,-0.0338 0.01756,-0.0338 0.02026,-0.0324 0.02161,-0.0324 0.02296,-0.0311 0.02296,-0.0297 0.02566,-0.0297 0.02701,-0.027 0.02836,-0.0257 0.02971,-0.0243 0.03106,-0.0216 0.03376,-0.0189 0.01621,-0.009 0.01756,-0.008 0.01756,-0.007 0.01891,-0.007 0.01891,-0.007 0.01891,-0.005 0.02026,-0.004 0.02026,-0.004 0.02026,-0.003 0.02026,-0.003 0.02161,-0.001 h 0.02161 c 0.03376,0 0.19448,0 0.336288,0.0864 -0.187727,0.0338 -0.322783,0.20259 -0.322783,0.3633 0,0.1067 0.07428,0.23635 0.255256,0.23635 0.14721,0 0.363299,-0.1202 0.363299,-0.39031 0,-0.35115 -0.397063,-0.44298 -0.625307,-0.44298 -0.390311,0 -0.626659,0.35654 -0.706341,0.51051 -0.16882,-0.44299 -0.53212,-0.51051 -0.7266,-0.51051 -0.700939,0 -1.084497,0.86705 -1.084497,1.03587 0,0.0675 0.06753,0.0675 0.08238,0.0675 0.05267,0 0.07428,-0.0149 0.08644,-0.0743 0.228244,-0.71309 0.673928,-0.88191 0.900821,-0.88191 0.129654,0 0.3633,0.0594 0.3633,0.44973 0,0.20799 -0.113447,0.66042 -0.3633,1.60176 -0.106694,0.41732 -0.341691,0.69959 -0.638813,0.69959 -0.04052,0 -0.19448,0 -0.336289,-0.0878 0.16882,-0.0324 0.317381,-0.17287 0.317381,-0.3633 0,-0.18097 -0.148561,-0.23364 -0.249853,-0.23364 -0.202583,0 -0.371403,0.17422 -0.371403,0.39031 0,0.30793 0.337639,0.44298 0.633411,0.44298 0.445684,0 0.686083,-0.47134 0.707692,-0.51051 0.07968,0.2485 0.322783,0.51051 0.725248,0.51051 0.694186,0 1.079095,-0.86706 1.079095,-1.03588 0,-0.0675 -0.06213,-0.0675 -0.08238,-0.0675 -0.05942,0 -0.07428,0.027 -0.08644,0.0729 -0.222841,0.71984 -0.68068,0.88191 -0.895418,0.88191 -0.263359,0 -0.371403,-0.21474 -0.371403,-0.44433 0,-0.14856 0.04052,-0.29578 0.116147,-0.59155 z"
         id="path1031" />
      <path
         style="font-style:normal;font-variant:normal;font-weight:normal;font-stretch:normal;letter-spacing:normal;word-spacing:normal;text-anchor:start;fill:#000000;fill-opacity:1;fill-rule:evenodd;stroke:#000000;stroke-width:0;stroke-linecap:butt;stroke-linejoin:miter;stroke-miterlimit:10.43299961;stroke-dasharray:none;stroke-dashoffset:0;stroke-opacity:1"
         
         d="m 75.005592,114.14739 h -0.160716 c -0.0135,0.10264 -0.06077,0.3822 -0.122901,0.42812 -0.03511,0.027 -0.398414,0.027 -0.464591,0.027 h -0.867057 c 0.494303,-0.43623 0.659071,-0.56723 0.941338,-0.78872 0.348443,-0.27822 0.673927,-0.56994 0.673927,-1.01697 0,-0.56994 -0.498355,-0.91838 -1.102054,-0.91838 -0.582089,0 -0.979153,0.40922 -0.979153,0.8414 0,0.24175 0.202584,0.26471 0.251204,0.26471 0.112097,0 0.248503,-0.081 0.248503,-0.24986 0,-0.0837 -0.03376,-0.2485 -0.278216,-0.2485 0.14586,-0.33359 0.465942,-0.43623 0.687433,-0.43623 0.471345,0 0.715795,0.36465 0.715795,0.74686 0,0.40922 -0.29172,0.73335 -0.442982,0.90217 l -1.133117,1.12096 c -0.04862,0.0419 -0.04862,0.0527 -0.04862,0.18368 h 1.939399 z"
         id="path1033" />
      <path
         style="font-style:normal;font-variant:normal;font-weight:normal;font-stretch:normal;letter-spacing:normal;word-spacing:normal;text-anchor:start;fill:#ff0000;fill-opacity:1;fill-rule:evenodd;stroke:#ff0000;stroke-width:0.15875;stroke-linecap:butt;stroke-linejoin:miter;stroke-miterlimit:10.43299961;stroke-dasharray:none;stroke-dashoffset:0;stroke-opacity:1"
         
         d="m 68.833972,119.59195 h 0.02161 0.02161 l 0.02026,-10e-4 h 0.0108 l 0.01081,-0.001 h 0.0095 l 0.0108,-0.001 0.0095,-10e-4 0.0095,-0.001 0.0095,-0.003 0.0095,-0.003 0.0095,-0.003 0.0081,-0.003 0.0081,-0.003 0.0081,-0.004 0.0081,-0.004 0.0068,-0.005 0.0068,-0.004 0.0054,-0.007 0.0068,-0.005 0.0041,-0.007 0.0027,-0.004 0.0027,-0.004 0.0014,-0.004 0.0027,-0.004 0.0014,-0.004 0.0027,-0.004 0.0014,-0.005 0.0014,-0.004 0.0014,-0.005 0.0014,-0.005 v -0.005 l 0.0014,-0.005 v -0.005 l 0.0014,-0.005 v -0.007 -0.005 c 0,-0.13506 -0.1229,-0.13506 -0.236347,-0.13506 h -3.63975 c -0.114797,0 -0.234996,0 -0.234996,0.13506 0,0.13505 0.120199,0.13505 0.234996,0.13505 z"
         id="path1035" />
      <path
         style="font-style:normal;font-variant:normal;font-weight:normal;font-stretch:normal;letter-spacing:normal;word-spacing:normal;text-anchor:start;fill:#000000;fill-opacity:1;fill-rule:evenodd;stroke:#000000;stroke-width:0;stroke-linecap:butt;stroke-linejoin:miter;stroke-miterlimit:10.43299961;stroke-dasharray:none;stroke-dashoffset:0;stroke-opacity:1"
         
         d="m 84.748506,115.22783 v -0.16071 c 0,-1.70306 0.833293,-1.94616 1.177685,-1.94616 0.159366,0 0.442983,0.0405 0.590193,0.27011 -0.09859,0 -0.368701,0 -0.368701,0.30253 0,0.20798 0.162066,0.30928 0.309277,0.30928 0.108045,0 0.307927,-0.0608 0.307927,-0.32279 0,-0.40516 -0.294421,-0.72795 -0.852201,-0.72795 -0.863006,0 -1.77058,0.86976 -1.77058,2.35537 0,1.79759 0.780622,2.27434 1.40593,2.27434 0.746857,0 1.38567,-0.63206 1.38567,-1.51937 0,-0.85356 -0.598296,-1.50182 -1.345154,-1.50182 l -0.0068,0.15666 c 0.106694,0 0.417322,0 0.626659,0.41732 0.120199,0.24715 0.120199,0.5902 0.120199,0.91973 0,0.32278 0,0.66042 -0.113446,0.90352 -0.202584,0.40247 -0.51186,0.43623 -0.667175,0.43623 v 0 c -0.424075,0 -0.625308,-0.40246 -0.664473,-0.50375 -0.122901,-0.31603 -0.122901,-0.85491 -0.122901,-0.97646 0,-0.52401 0.214738,-1.19659 0.821138,-1.19659 l 0.0068,-0.15666 c -0.456488,0 -0.70499,0.34439 -0.840047,0.66717 z"
         id="path1037" />
      <path
         style="font-style:normal;font-variant:normal;font-weight:normal;font-stretch:normal;letter-spacing:normal;word-spacing:normal;text-anchor:start;fill:#000000;fill-opacity:1;fill-rule:evenodd;stroke:#000000;stroke-width:0;stroke-linecap:butt;stroke-linejoin:miter;stroke-miterlimit:10.43299961;stroke-dasharray:none;stroke-dashoffset:0;stroke-opacity:1"
         
         d="m 89.478155,115.40205 0.0041,-0.0175 0.0041,-0.0203 0.0054,-0.0216 0.0068,-0.0243 0.0068,-0.0257 0.0081,-0.0284 0.0095,-0.0297 0.0095,-0.0297 0.0108,-0.0311 0.01216,-0.0324 0.01215,-0.0338 0.01486,-0.0324 0.01486,-0.0338 0.01621,-0.0338 0.01756,-0.0338 0.01756,-0.0338 0.02026,-0.0324 0.02161,-0.0324 0.02161,-0.0311 0.02431,-0.0297 0.02566,-0.0297 0.02701,-0.027 0.02836,-0.0257 0.02971,-0.0243 0.03106,-0.0216 0.03241,-0.0189 0.01756,-0.009 0.01756,-0.008 0.01756,-0.007 0.01891,-0.007 0.01891,-0.007 0.01891,-0.005 0.02026,-0.004 0.01891,-0.004 0.02161,-0.003 0.02026,-0.003 0.02161,-0.001 h 0.02161 c 0.03376,0 0.19448,0 0.336289,0.0864 -0.187728,0.0338 -0.322783,0.20259 -0.322783,0.3633 0,0.1067 0.07293,0.23635 0.255255,0.23635 0.14721,0 0.361949,-0.1202 0.361949,-0.39031 0,-0.35115 -0.395713,-0.44298 -0.623957,-0.44298 -0.390311,0 -0.626658,0.35654 -0.706341,0.51051 -0.16882,-0.44299 -0.532119,-0.51051 -0.7266,-0.51051 -0.700938,0 -1.084496,0.86705 -1.084496,1.03587 0,0.0675 0.06753,0.0675 0.08238,0.0675 0.05267,0 0.07428,-0.0149 0.08644,-0.0743 0.228244,-0.71309 0.672577,-0.88191 0.900821,-0.88191 0.129654,0 0.3633,0.0594 0.3633,0.44973 0,0.20799 -0.114797,0.66042 -0.3633,1.60176 -0.106694,0.41732 -0.34169,0.69959 -0.638813,0.69959 -0.04052,0 -0.19448,0 -0.336288,-0.0878 0.168819,-0.0324 0.31738,-0.17287 0.31738,-0.3633 0,-0.18097 -0.148561,-0.23364 -0.249853,-0.23364 -0.202583,0 -0.371403,0.17422 -0.371403,0.39031 0,0.30793 0.337639,0.44298 0.633411,0.44298 0.445684,0 0.686083,-0.47134 0.707692,-0.51051 0.07968,0.2485 0.321432,0.51051 0.725249,0.51051 0.694186,0 1.077744,-0.86706 1.077744,-1.03588 0,-0.0675 -0.06078,-0.0675 -0.08103,-0.0675 -0.05942,0 -0.07428,0.027 -0.08779,0.0729 -0.221491,0.71984 -0.67933,0.88191 -0.894068,0.88191 -0.263359,0 -0.371403,-0.21474 -0.371403,-0.44433 0,-0.14856 0.04052,-0.29578 0.116148,-0.59155 z"
         id="path1039" />
      <polyline
         transform="matrix(0.13505564,0,0,-0.13505564,-18.082464,155.12007)"
         style="font-style:normal;font-variant:normal;font-weight:normal;font-stretch:normal;letter-spacing:normal;word-spacing:normal;text-anchor:start;fill:#000000;fill-opacity:1;fill-rule:nonzero;stroke:#000000;stroke-width:0;stroke-linecap:butt;stroke-linejoin:miter;stroke-miterlimit:10.43299961;stroke-dasharray:none;stroke-dashoffset:0;stroke-opacity:1"
         points="593,251 843.92,251 843.92,253.04 593,253.04 "
         id="polyline1041" />
      <path
         style="font-style:normal;font-variant:normal;font-weight:normal;font-stretch:normal;letter-spacing:normal;word-spacing:normal;text-anchor:start;fill:#000000;fill-opacity:1;fill-rule:evenodd;stroke:#000000;stroke-width:0;stroke-linecap:butt;stroke-linejoin:miter;stroke-miterlimit:10.43299961;stroke-dasharray:none;stroke-dashoffset:0;stroke-opacity:1"
         
         d="m 86.330402,125.98366 h 0.02161 0.02161 0.02026 l 0.0108,-0.001 h 0.01081 l 0.0095,-10e-4 0.0108,-0.001 0.0095,-0.001 0.0095,-10e-4 0.0095,-0.001 0.0095,-0.003 0.0095,-0.003 0.0081,-0.003 0.0081,-0.003 0.0081,-0.004 0.0081,-0.004 0.0068,-0.005 0.0068,-0.005 0.0054,-0.005 0.0068,-0.007 0.0041,-0.007 0.0027,-0.003 0.0027,-0.004 0.0014,-0.004 0.0027,-0.004 0.0014,-0.004 0.0027,-0.005 0.0014,-0.004 0.0014,-0.004 0.0014,-0.005 0.0014,-0.005 v -0.005 l 0.0014,-0.005 v -0.005 l 0.0014,-0.005 v -0.007 -0.007 c 0,-0.13506 -0.1229,-0.13506 -0.236347,-0.13506 h -3.63975 c -0.114797,0 -0.234996,0 -0.234996,0.13506 0,0.13505 0.120199,0.13505 0.234996,0.13505 z"
         id="path1043" />
      <path
         style="font-style:normal;font-variant:normal;font-weight:normal;font-stretch:normal;letter-spacing:normal;word-spacing:normal;text-anchor:start;fill:#000000;fill-opacity:1;fill-rule:evenodd;stroke:#000000;stroke-width:0;stroke-linecap:butt;stroke-linejoin:miter;stroke-miterlimit:10.43299961;stroke-dasharray:none;stroke-dashoffset:0;stroke-opacity:1"
         
         d="m 89.477198,127.01144 0.713094,-0.69149 c 1.048032,-0.92918 1.453199,-1.29113 1.453199,-1.96506 0,-0.76847 -0.60505,-1.30599 -1.426188,-1.30599 -0.761714,0 -1.260069,0.61991 -1.260069,1.21956 0,0.37545 0.337639,0.37545 0.356547,0.37545 0.116148,0 0.351145,-0.0797 0.351145,-0.35655 0,-0.17422 -0.1202,-0.34979 -0.356547,-0.34979 -0.05267,0 -0.06753,0 -0.08644,0.007 0.153964,-0.43758 0.515913,-0.68608 0.906223,-0.68608 0.613153,0 0.903523,0.54562 0.903523,1.09665 0,0.53887 -0.337639,1.06964 -0.706341,1.48831 l -1.292483,1.43835 c -0.07563,0.0743 -0.07563,0.0864 -0.07563,0.24985 h 2.497179 l 0.189078,-1.17093 h -0.16882 c -0.03376,0.20258 -0.07968,0.497 -0.14721,0.59829 -0.04862,0.0527 -0.491603,0.0527 -0.638814,0.0527 z"
         id="path1045" />
      <path
         style="font-style:normal;font-variant:normal;font-weight:normal;font-stretch:normal;letter-spacing:normal;word-spacing:normal;text-anchor:start;fill:#000000;fill-opacity:1;fill-rule:evenodd;stroke:#000000;stroke-width:0;stroke-linecap:butt;stroke-linejoin:miter;stroke-miterlimit:10.43299961;stroke-dasharray:none;stroke-dashoffset:0;stroke-opacity:1"
         
         d="m 94.240611,125.49881 0.0041,-0.0175 0.0041,-0.0203 0.0054,-0.0216 0.0068,-0.0243 0.0068,-0.027 0.0081,-0.027 0.0095,-0.0297 0.0095,-0.0297 0.0108,-0.0324 0.01216,-0.0324 0.01215,-0.0324 0.01486,-0.0338 0.01486,-0.0338 0.01621,-0.0338 0.01756,-0.0338 0.01756,-0.0324 0.02026,-0.0324 0.02161,-0.0324 0.02161,-0.0311 0.02431,-0.0311 0.02566,-0.0284 0.02701,-0.027 0.02836,-0.0257 0.02971,-0.0243 0.03106,-0.0216 0.03241,-0.0189 0.01756,-0.009 0.01756,-0.008 0.01756,-0.007 0.01891,-0.007 0.01891,-0.007 0.01891,-0.005 0.02026,-0.004 0.01891,-0.004 0.02161,-0.003 0.02026,-0.003 0.02161,-10e-4 h 0.02161 c 0.03376,0 0.19448,0 0.336289,0.0864 -0.187728,0.0338 -0.322783,0.20259 -0.322783,0.36195 0,0.10805 0.07293,0.23635 0.255255,0.23635 0.14721,0 0.361949,-0.1202 0.361949,-0.39031 0,-0.3498 -0.395713,-0.44299 -0.623957,-0.44299 -0.390311,0 -0.626658,0.35655 -0.706341,0.51052 -0.16882,-0.44299 -0.532119,-0.51052 -0.7266,-0.51052 -0.700938,0 -1.084496,0.86706 -1.084496,1.03588 0,0.0675 0.06753,0.0675 0.08238,0.0675 0.05267,0 0.07428,-0.0149 0.08644,-0.0729 0.228244,-0.71309 0.672577,-0.88191 0.900821,-0.88191 0.129654,0 0.3633,0.0581 0.3633,0.44838 0,0.20934 -0.114797,0.66042 -0.3633,1.60176 -0.106694,0.41867 -0.34169,0.70094 -0.638813,0.70094 -0.04052,0 -0.19448,0 -0.336288,-0.0891 0.168819,-0.0311 0.31738,-0.17287 0.31738,-0.36195 0,-0.18232 -0.148561,-0.23499 -0.249853,-0.23499 -0.202583,0 -0.371403,0.17557 -0.371403,0.39031 0,0.30792 0.337639,0.44298 0.633411,0.44298 0.445684,0 0.686083,-0.46999 0.707692,-0.51051 0.07968,0.24985 0.321432,0.51051 0.725249,0.51051 0.694186,0 1.077744,-0.86706 1.077744,-1.03588 0,-0.0675 -0.06078,-0.0675 -0.08103,-0.0675 -0.05942,0 -0.07428,0.0284 -0.08779,0.0743 -0.221491,0.71984 -0.67933,0.88191 -0.894068,0.88191 -0.263359,0 -0.371403,-0.21474 -0.371403,-0.44568 0,-0.14721 0.04052,-0.29443 0.116148,-0.5902 z"
         id="path1047" />
      <path
         style="font-style:normal;font-variant:normal;font-weight:normal;font-stretch:normal;letter-spacing:normal;word-spacing:normal;text-anchor:start;fill:#000000;fill-opacity:1;fill-rule:evenodd;stroke:#000000;stroke-width:0;stroke-linecap:butt;stroke-linejoin:miter;stroke-miterlimit:10.43299961;stroke-dasharray:none;stroke-dashoffset:0;stroke-opacity:1"
         
         d="m 100.09257,125.98366 h 1.87727 c 0.0932,0 0.2215,0 0.2215,-0.13505 0,-0.13506 -0.12831,-0.13506 -0.2215,-0.13506 h -1.87727 v -1.88403 c 0,-0.0932 0,-0.22149 -0.135054,-0.22149 -0.133705,0 -0.133705,0.12831 -0.133705,0.22149 v 1.88403 h -1.884026 c -0.09454,0 -0.221492,0 -0.221492,0.13506 0,0.13505 0.126953,0.13505 0.221492,0.13505 h 1.884026 v 1.88268 c 0,0.0959 0,0.22419 0.133705,0.22419 0.135054,0 0.135054,-0.1283 0.135054,-0.22419 z"
         id="path1049" />
      <path
         style="font-style:normal;font-variant:normal;font-weight:normal;font-stretch:normal;letter-spacing:normal;word-spacing:normal;text-anchor:start;fill:#000000;fill-opacity:1;fill-rule:evenodd;stroke:#000000;stroke-width:0;stroke-linecap:butt;stroke-linejoin:miter;stroke-miterlimit:10.43299961;stroke-dasharray:none;stroke-dashoffset:0;stroke-opacity:1"
         
         d="m 104.95457,125.32324 v -0.15937 c 0,-1.70305 0.8333,-1.94615 1.17769,-1.94615 0.15937,0 0.44298,0.0405 0.59019,0.27011 -0.0986,0 -0.3687,0 -0.3687,0.30118 0,0.20933 0.16207,0.31063 0.30928,0.31063 0.10804,0 0.30928,-0.0608 0.30928,-0.32279 0,-0.40516 -0.29578,-0.72795 -0.85356,-0.72795 -0.863,0 -1.77058,0.86976 -1.77058,2.35537 0,1.79759 0.78063,2.27434 1.40593,2.27434 0.74686,0 1.38703,-0.63341 1.38703,-1.51938 0,-0.8549 -0.59965,-1.50181 -1.34651,-1.50181 l -0.007,0.15531 c 0.10804,0 0.41732,0 0.62666,0.41867 0.1202,0.2458 0.1202,0.5902 0.1202,0.91973 0,0.32278 0,0.66042 -0.11345,0.90352 -0.20258,0.40247 -0.51051,0.43623 -0.66718,0.43623 v 0 c -0.42407,0 -0.6253,-0.40246 -0.66447,-0.50375 -0.1229,-0.31738 -0.1229,-0.85491 -0.1229,-0.97781 0,-0.52266 0.21609,-1.19659 0.82114,-1.19659 l 0.007,-0.15531 c -0.45649,0 -0.70499,0.34304 -0.84005,0.66582 z"
         id="path1051" />
      <path
         style="font-style:normal;font-variant:normal;font-weight:normal;font-stretch:normal;letter-spacing:normal;word-spacing:normal;text-anchor:start;fill:#000000;fill-opacity:1;fill-rule:evenodd;stroke:#000000;stroke-width:0;stroke-linecap:butt;stroke-linejoin:miter;stroke-miterlimit:10.43299961;stroke-dasharray:none;stroke-dashoffset:0;stroke-opacity:1"
         
         d="m 89.477198,135.08371 0.713094,-0.69283 c 1.048032,-0.92784 1.453199,-1.29114 1.453199,-1.96506 0,-0.76712 -0.60505,-1.30599 -1.426188,-1.30599 -0.761714,0 -1.260069,0.62125 -1.260069,1.21955 0,0.37681 0.337639,0.37681 0.356547,0.37681 0.116148,0 0.351145,-0.081 0.351145,-0.3579 0,-0.17422 -0.1202,-0.3498 -0.356547,-0.3498 -0.05267,0 -0.06753,0 -0.08644,0.007 0.153964,-0.43758 0.515913,-0.68609 0.906223,-0.68609 0.613153,0 0.903523,0.54698 0.903523,1.09666 0,0.53887 -0.337639,1.07099 -0.706341,1.48831 l -1.292483,1.43969 c -0.07563,0.0729 -0.07563,0.0864 -0.07563,0.24851 h 2.497179 l 0.189078,-1.17094 h -0.16882 c -0.03376,0.20259 -0.07968,0.49836 -0.14721,0.59965 -0.04862,0.0527 -0.491603,0.0527 -0.638814,0.0527 z"
         id="path1053" />
      <path
         style="font-style:normal;font-variant:normal;font-weight:normal;font-stretch:normal;letter-spacing:normal;word-spacing:normal;text-anchor:start;fill:#000000;fill-opacity:1;fill-rule:evenodd;stroke:#000000;stroke-width:0;stroke-linecap:butt;stroke-linejoin:miter;stroke-miterlimit:10.43299961;stroke-dasharray:none;stroke-dashoffset:0;stroke-opacity:1"
         
         d="m 94.240611,133.56974 0.0041,-0.0176 0.0041,-0.0203 0.0054,-0.0216 0.0068,-0.0243 0.0068,-0.0257 0.0081,-0.0284 0.0095,-0.0297 0.0095,-0.0297 0.0108,-0.0311 0.01216,-0.0324 0.01215,-0.0338 0.01486,-0.0338 0.01486,-0.0324 0.01621,-0.0338 0.01756,-0.0338 0.01756,-0.0338 0.02026,-0.0324 0.02161,-0.0324 0.02161,-0.0311 0.02431,-0.0297 0.02566,-0.0297 0.02701,-0.027 0.02836,-0.0257 0.02971,-0.0243 0.03106,-0.0216 0.03241,-0.0189 0.01756,-0.009 0.01756,-0.008 0.01756,-0.007 0.01891,-0.007 0.01891,-0.007 0.01891,-0.005 0.02026,-0.004 0.01891,-0.004 0.02161,-0.003 0.02026,-0.003 0.02161,-0.001 h 0.02161 c 0.03376,0 0.19448,0 0.336289,0.0864 -0.187728,0.0338 -0.322783,0.20258 -0.322783,0.3633 0,0.10669 0.07293,0.23634 0.255255,0.23634 0.14721,0 0.361949,-0.1202 0.361949,-0.39031 0,-0.35114 -0.395713,-0.44433 -0.623957,-0.44433 -0.390311,0 -0.626658,0.3579 -0.706341,0.51186 -0.16882,-0.44433 -0.532119,-0.51186 -0.7266,-0.51186 -0.700938,0 -1.084496,0.86841 -1.084496,1.03723 0,0.0675 0.06753,0.0675 0.08238,0.0675 0.05267,0 0.07428,-0.0149 0.08644,-0.0743 0.228244,-0.71309 0.672577,-0.88191 0.900821,-0.88191 0.129654,0 0.3633,0.0594 0.3633,0.44974 0,0.20798 -0.114797,0.66042 -0.3633,1.60176 -0.106694,0.41732 -0.34169,0.69958 -0.638813,0.69958 -0.04052,0 -0.19448,0 -0.336288,-0.0878 0.168819,-0.0324 0.31738,-0.17287 0.31738,-0.3633 0,-0.18098 -0.148561,-0.23365 -0.249853,-0.23365 -0.202583,0 -0.371403,0.17422 -0.371403,0.39031 0,0.30793 0.337639,0.44299 0.633411,0.44299 0.445684,0 0.686083,-0.47135 0.707692,-0.51051 0.07968,0.2485 0.321432,0.51051 0.725249,0.51051 0.694186,0 1.077744,-0.86706 1.077744,-1.03588 0,-0.0675 -0.06078,-0.0675 -0.08103,-0.0675 -0.05942,0 -0.07428,0.027 -0.08779,0.0729 -0.221491,0.71985 -0.67933,0.88191 -0.894068,0.88191 -0.263359,0 -0.371403,-0.21473 -0.371403,-0.44433 0,-0.14856 0.04052,-0.29577 0.116148,-0.59154 z"
         id="path1055" />
      <path
         style="font-style:normal;font-variant:normal;font-weight:normal;font-stretch:normal;letter-spacing:normal;word-spacing:normal;text-anchor:start;fill:#000000;fill-opacity:1;fill-rule:evenodd;stroke:#000000;stroke-width:0;stroke-linecap:butt;stroke-linejoin:miter;stroke-miterlimit:10.43299961;stroke-dasharray:none;stroke-dashoffset:0;stroke-opacity:1"
         
         d="m 106.04312,134.49217 v 0.58479 c 0,0.2431 -0.0122,0.31603 -0.51051,0.31603 h -0.14046 v 0.20934 c 0.27552,-0.0216 0.62666,-0.0216 0.90893,-0.0216 0.28227,0 0.64016,0 0.91433,0.0216 v -0.20934 h -0.14181 c -0.49836,0 -0.51051,-0.0729 -0.51051,-0.31603 v -0.58479 h 0.67257 v -0.20934 h -0.67257 v -3.06171 c 0,-0.13506 0,-0.17422 -0.10805,-0.17422 -0.0608,0 -0.0797,0 -0.13505,0.0824 l -2.06635,3.15355 h 0.19042 l 1.64228,-2.50798 v 2.50798 h -1.64228 -0.19042 v 0.20934 z"
         id="path1059" />
      <polyline
         transform="matrix(0.13505564,0,0,-0.13505564,-18.082464,156.70758)"
         style="font-style:normal;font-variant:normal;font-weight:normal;font-stretch:normal;letter-spacing:normal;word-spacing:normal;text-anchor:start;fill:#000000;fill-opacity:1;fill-rule:nonzero;stroke:#000000;stroke-width:0;stroke-linecap:butt;stroke-linejoin:miter;stroke-miterlimit:10.43299961;stroke-dasharray:none;stroke-dashoffset:0;stroke-opacity:1"
         points="729,117 929.16,117 929.16,119.04 729,119.04 "
         id="polyline1061" />
      <path
         style="font-style:normal;font-variant:normal;font-weight:normal;font-stretch:normal;letter-spacing:normal;word-spacing:normal;text-anchor:start;fill:#000000;fill-opacity:1;fill-rule:evenodd;stroke:#000000;stroke-width:0;stroke-linecap:butt;stroke-linejoin:miter;stroke-miterlimit:10.43299961;stroke-dasharray:none;stroke-dashoffset:0;stroke-opacity:1"
         
         d="m 102.67348,143.50857 v -0.007 -0.007 -0.007 -0.007 -0.007 -0.006 -0.006 -0.006 -0.006 -0.006 -0.005 l -0.001,-0.005 v -0.005 -0.005 -0.005 l -10e-4,-0.005 v -0.009 l -0.001,-0.008 -0.003,-0.007 -10e-4,-0.007 -0.003,-0.006 -0.001,-0.006 -0.004,-0.005 -0.003,-0.005 -0.004,-0.004 -0.004,-0.004 -0.005,-0.003 -0.005,-0.003 -0.005,-0.003 -0.004,-0.001 -0.003,-0.001 -0.004,-9.4e-4 -0.003,-9.5e-4 -0.004,-8.1e-4 -0.004,-8.1e-4 -0.004,-6.8e-4 -0.004,-6.7e-4 -0.005,-5.4e-4 -0.004,-4.1e-4 -0.005,-5.4e-4 -0.004,-4e-4 -0.005,-2.7e-4 -0.005,-2.7e-4 -0.007,-2.7e-4 -0.005,-2.7e-4 -0.005,-1.4e-4 -0.007,-1.3e-4 -0.007,-1.4e-4 h -0.007 -0.007 -0.007 c -0.41732,0.43043 -1.00886,0.43043 -1.2236,0.43043 v 0.20893 c 0.13505,0 0.53077,0 0.87921,-0.17517 v 3.48619 c 0,0.2427 -0.0189,0.32278 -0.62396,0.32278 h -0.21474 v 0.20893 c 0.23635,-0.0211 0.81979,-0.0211 1.08855,-0.0211 0.27011,0 0.85355,0 1.0899,0.0211 v -0.20893 h -0.21474 c -0.60505,0 -0.62666,-0.0739 -0.62666,-0.32278 z"
         id="path1063" />
      <path
         style="font-style:normal;font-variant:normal;font-weight:normal;font-stretch:normal;letter-spacing:normal;word-spacing:normal;text-anchor:start;fill:#000000;fill-opacity:1;fill-rule:evenodd;stroke:#000000;stroke-width:0;stroke-linecap:butt;stroke-linejoin:miter;stroke-miterlimit:10.43299961;stroke-dasharray:none;stroke-dashoffset:0;stroke-opacity:1"
         
         d="m 107.16273,145.66311 v -0.10102 l -0.003,-0.10089 -0.003,-0.10075 -0.004,-0.10061 -0.005,-0.10048 -0.008,-0.10008 -0.0108,-0.0998 -0.0121,-0.0994 -0.0162,-0.0989 -0.0189,-0.0982 -0.0216,-0.0978 -0.0257,-0.097 -0.0297,-0.0962 -0.0324,-0.0953 -0.0378,-0.0944 -0.0203,-0.0469 -0.0216,-0.0467 c -0.30792,-0.64773 -0.86165,-0.75537 -1.14392,-0.75537 -0.40246,0 -0.89407,0.17517 -1.17093,0.80183 -0.21609,0.46432 -0.2485,0.98969 -0.2485,1.52788 0,0.5043 0.027,1.10989 0.30252,1.62067 0.29037,0.54441 0.78197,0.67947 1.11016,0.67947 v -0.14776 c -0.26066,0 -0.66042,-0.16881 -0.78062,-0.81452 -0.0729,-0.40314 -0.0729,-1.02142 -0.0729,-1.42024 0,-0.43042 0,-0.87368 0.054,-1.23657 0.12695,-0.80183 0.63071,-0.86098 0.79953,-0.86098 0.22149,0 0.66717,0.12033 0.79413,0.7871 0.0675,0.37559 0.0675,0.8884 0.0675,1.31045 0,0.50646 0,0.96227 -0.0743,1.39283 -0.10129,0.63935 -0.48485,0.84193 -0.78737,0.84193 v 0 0.14776 c 0.3633,0 0.87381,-0.14141 1.17228,-0.78076 0.21474,-0.46432 0.2485,-0.98766 0.2485,-1.51938 z"
         id="path1065" />
      <path
         id="path1351"
         d="m 79.886456,115.75488 h 1.877274 c 0.09319,0 0.221491,0 0.221491,-0.13506 0,-0.13505 -0.128303,-0.13505 -0.221491,-0.13505 h -1.877274 v -1.88538 c 0,-0.0918 0,-0.22149 -0.135056,-0.22149 -0.133705,0 -0.133705,0.12965 -0.133705,0.22149 v 1.88538 h -1.884026 c -0.09454,0 -0.221491,0 -0.221491,0.13505 0,0.13506 0.126952,0.13506 0.221491,0.13506 h 1.884026 v 1.88132 c 0,0.0959 0,0.2242 0.133705,0.2242 0.135056,0 0.135056,-0.12831 0.135056,-0.2242 z"
         
         style="font-style:normal;font-variant:normal;font-weight:normal;font-stretch:normal;letter-spacing:normal;word-spacing:normal;text-anchor:start;fill:#000000;fill-opacity:1;fill-rule:evenodd;stroke:#000000;stroke-width:0;stroke-linecap:butt;stroke-linejoin:miter;stroke-miterlimit:10.43299961;stroke-dasharray:none;stroke-dashoffset:0;stroke-opacity:1" />
      <path
         id="path1896"
         d="m 86.330402,133.92121 h 0.02161 0.02161 0.02026 l 0.0108,-0.001 h 0.01081 l 0.0095,-0.001 0.0108,-0.001 0.0095,-10e-4 0.0095,-0.001 0.0095,-0.001 0.0095,-0.003 0.0095,-0.003 0.0081,-0.003 0.0081,-0.003 0.0081,-0.004 0.0081,-0.004 0.0068,-0.005 0.0068,-0.005 0.0054,-0.005 0.0068,-0.007 0.0041,-0.007 0.0027,-0.003 0.0027,-0.004 0.0014,-0.004 0.0027,-0.004 0.0014,-0.004 0.0027,-0.005 0.0014,-0.004 0.0014,-0.004 0.0014,-0.005 0.0014,-0.005 v -0.005 l 0.0014,-0.005 v -0.005 l 0.0014,-0.005 v -0.007 -0.007 c 0,-0.13506 -0.1229,-0.13506 -0.236347,-0.13506 h -3.63975 c -0.114797,0 -0.234996,0 -0.234996,0.13506 0,0.13505 0.120199,0.13505 0.234996,0.13505 z"
         
         style="font-style:normal;font-variant:normal;font-weight:normal;font-stretch:normal;letter-spacing:normal;word-spacing:normal;text-anchor:start;fill:#000000;fill-opacity:1;fill-rule:evenodd;stroke:#000000;stroke-width:0;stroke-linecap:butt;stroke-linejoin:miter;stroke-miterlimit:10.43299961;stroke-dasharray:none;stroke-dashoffset:0;stroke-opacity:1" />
      <path
         style="font-style:normal;font-variant:normal;font-weight:normal;font-stretch:normal;letter-spacing:normal;word-spacing:normal;text-anchor:start;fill:#000000;fill-opacity:1;fill-rule:evenodd;stroke:#000000;stroke-width:0;stroke-linecap:butt;stroke-linejoin:miter;stroke-miterlimit:10.43299961;stroke-dasharray:none;stroke-dashoffset:0;stroke-opacity:1"
         
         d="m 101.5922,133.92121 h 0.0216 0.0216 0.0203 l 0.0108,-0.001 h 0.0108 l 0.01,-0.001 0.0108,-0.001 0.01,-10e-4 0.01,-0.001 0.009,-0.001 0.01,-0.003 0.01,-0.003 0.008,-0.003 0.008,-0.003 0.008,-0.004 0.008,-0.004 0.007,-0.005 0.007,-0.005 0.005,-0.005 0.007,-0.007 0.004,-0.007 0.003,-0.003 0.003,-0.004 0.001,-0.004 0.003,-0.004 10e-4,-0.004 0.003,-0.005 0.001,-0.004 0.001,-0.004 10e-4,-0.005 0.001,-0.005 v -0.005 l 0.001,-0.005 v -0.005 l 10e-4,-0.005 v -0.007 -0.007 c 0,-0.13506 -0.1229,-0.13506 -0.23634,-0.13506 h -3.639764 c -0.114796,0 -0.234995,0 -0.234995,0.13506 0,0.13505 0.120199,0.13505 0.234995,0.13505 z"
         id="path1898" />
      <path
         id="path1900"
         d="m 100.09257,137.6254 h 1.87727 c 0.0932,0 0.2215,0 0.2215,-0.13505 0,-0.13506 -0.12831,-0.13506 -0.2215,-0.13506 h -1.87727 v -1.88403 c 0,-0.0932 0,-0.22149 -0.135054,-0.22149 -0.133705,0 -0.133705,0.12831 -0.133705,0.22149 v 1.88403 h -1.884026 c -0.09454,0 -0.221492,0 -0.221492,0.13506 0,0.13505 0.126953,0.13505 0.221492,0.13505 h 1.884026 v 1.88268 c 0,0.0959 0,0.22419 0.133705,0.22419 0.135054,0 0.135054,-0.1283 0.135054,-0.22419 z"
         
         style="font-style:normal;font-variant:normal;font-weight:normal;font-stretch:normal;letter-spacing:normal;word-spacing:normal;text-anchor:start;fill:#ff0000;fill-opacity:1;fill-rule:evenodd;stroke:#ff0000;stroke-width:0.15875;stroke-linecap:butt;stroke-linejoin:miter;stroke-miterlimit:10.43299961;stroke-dasharray:none;stroke-dashoffset:0;stroke-opacity:1" />
      <path
         style="font-style:normal;font-variant:normal;font-weight:normal;font-stretch:normal;letter-spacing:normal;word-spacing:normal;text-anchor:start;fill:#ff0000;fill-opacity:1;fill-rule:evenodd;stroke:#ff0000;stroke-width:0.15875;stroke-linecap:butt;stroke-linejoin:miter;stroke-miterlimit:10.43299961;stroke-dasharray:none;stroke-dashoffset:0;stroke-opacity:1"
         
         d="m 84.746727,137.6254 h 1.877261 c 0.0932,0 0.221497,0 0.221497,-0.13505 0,-0.13506 -0.128307,-0.13506 -0.221497,-0.13506 h -1.877261 v -1.88403 c 0,-0.0932 0,-0.22149 -0.135054,-0.22149 -0.133705,0 -0.133705,0.12831 -0.133705,0.22149 v 1.88403 h -1.884026 c -0.09454,0 -0.221492,0 -0.221492,0.13506 0,0.13505 0.126953,0.13505 0.221492,0.13505 h 1.884026 v 1.88268 c 0,0.0959 0,0.22419 0.133705,0.22419 0.135054,0 0.135054,-0.1283 0.135054,-0.22419 z"
         id="path1902" />
    </g>
  </g>
</svg>
