<?xml version="1.0" encoding="UTF-8" standalone="no"?>
<svg
   viewBox="0 0 91 84"
   version="1.1"
   id="svg1"
   sodipodi:docname="long_division_3.svg"
   inkscape:export-filename="long_division_3.png"
   inkscape:export-xdpi="421.97803"
   inkscape:export-ydpi="421.97803"
   inkscape:version="1.4 (1:1.4+202410161351+e7c3feb100)"
   xmlns:inkscape="http://www.inkscape.org/namespaces/inkscape"
   xmlns:sodipodi="http://sodipodi.sourceforge.net/DTD/sodipodi-0.dtd"
   xmlns="http://www.w3.org/2000/svg"
   xmlns:svg="http://www.w3.org/2000/svg">
  <defs
     id="defs1" />
  <sodipodi:namedview
     id="namedview1"
     pagecolor="#ffffff"
     bordercolor="#666666"
     borderopacity="1.0"
     inkscape:showpageshadow="2"
     inkscape:pageopacity="0.0"
     inkscape:pagecheckerboard="0"
     inkscape:deskcolor="#d1d1d1"
     inkscape:export-bgcolor="#ffffffff"
     inkscape:zoom="9.010989"
     inkscape:cx="45.5"
     inkscape:cy="42.004268"
     inkscape:window-width="1920"
     inkscape:window-height="1011"
     inkscape:window-x="0"
     inkscape:window-y="0"
     inkscape:window-maximized="1"
     inkscape:current-layer="layer1" />
  <g
     id="layer1"
     inkscape:groupmode="layer"
     inkscape:label="Layer 1"
     transform="translate(-21.464013,-119.86064)">
    <g
       id="g2075">
      <g
         transform="matrix(0.3,0,0,-0.3,-52.5,222.75)"
         id="content"
         style="font-style:normal;font-variant:normal;font-weight:normal;font-stretch:normal;letter-spacing:normal;word-spacing:normal;text-anchor:start;fill:none;fill-opacity:1;fill-rule:evenodd;stroke:#000000;stroke-linecap:butt;stroke-linejoin:miter;stroke-miterlimit:10.43299961;stroke-dasharray:none;stroke-dashoffset:0;stroke-opacity:1">
        <g
           id="g2298">
          <path
             d="m 357.29106,329.57221 0.0154,0.0667 0.0154,0.077 0.0257,0.0821 0.0205,0.0924 0.0308,0.0975 0.0257,0.10779 0.0359,0.11293 0.0359,0.11293 0.0411,0.11806 0.0462,0.1232 0.0513,0.12832 0.0513,0.1232 0.0565,0.12833 0.0616,0.12832 0.0667,0.12833 0.0719,0.12833 0.0719,0.1232 0.0821,0.12319 0.0873,0.11806 0.0873,0.11293 0.0975,0.11293 0.10267,0.10266 0.10779,0.0975 0.11293,0.0924 0.11806,0.0821 0.12833,0.0719 0.0616,0.0359 0.0667,0.0308 0.0719,0.0257 0.0667,0.0257 0.0719,0.0257 0.0719,0.0205 0.077,0.0154 0.077,0.0154 0.077,0.0103 0.077,0.0103 0.0821,0.005 h 0.0873 c 0.12833,0 0.73403,0 1.27301,-0.32852 -0.7135,-0.12832 -1.22681,-0.76996 -1.22681,-1.3808 0,-0.40552 0.28232,-0.8983 0.97016,-0.8983 0.55951,0 1.38081,0.45685 1.38081,1.48347 0,1.33461 -1.50914,1.68366 -2.37664,1.68366 -1.48347,0 -2.38177,-1.35514 -2.68462,-1.94031 -0.64164,1.68366 -2.02245,1.94031 -2.76162,1.94031 -2.65895,0 -4.12189,-3.29546 -4.12189,-3.9371 0,-0.25665 0.25665,-0.25665 0.31312,-0.25665 0.20019,0 0.28232,0.0565 0.32852,0.28232 0.86749,2.71028 2.56142,3.35192 3.42379,3.35192 0.49278,0 1.38081,-0.22585 1.38081,-1.70932 0,-0.7905 -0.43119,-2.5101 -1.38081,-6.08788 -0.40552,-1.58614 -1.29868,-2.65896 -2.42797,-2.65896 -0.15399,0 -0.73917,0 -1.27301,0.33365 0.64164,0.1232 1.20115,0.65704 1.20115,1.38081 0,0.68784 -0.55951,0.88803 -0.9445,0.88803 -0.76996,0 -1.4116,-0.66217 -1.4116,-1.48347 0,-1.17035 1.28328,-1.68366 2.4023,-1.68366 1.69393,0 2.60762,1.79146 2.68975,1.94032 0.30286,-0.9445 1.22682,-1.94032 2.75649,-1.94032 2.63842,0 4.10136,3.29546 4.10136,3.9371 0,0.25666 -0.23613,0.25666 -0.31312,0.25666 -0.22586,0 -0.28232,-0.10267 -0.32852,-0.27719 -0.84183,-2.73595 -2.58196,-3.35193 -3.40326,-3.35193 -1.00096,0 -1.41161,0.81617 -1.41161,1.6888 0,0.56464 0.154,1.12415 0.44145,2.2483 z"
             id="path1980"
             style="fill:#000000;stroke-width:0" />
          <path
             d="m 372.37729,334.34088 h -0.6057 c -0.0513,-0.39012 -0.23613,-1.45267 -0.46712,-1.6272 -0.13859,-0.10266 -1.51427,-0.10266 -1.76579,-0.10266 h -3.29546 c 1.87872,1.658 2.49983,2.15591 3.57778,2.99774 1.32435,1.05742 2.55629,2.16618 2.55629,3.86524 0,2.16618 -1.88898,3.49052 -4.18349,3.49052 -2.21237,0 -3.72151,-1.55533 -3.72151,-3.19793 0,-0.91883 0.76997,-1.00609 0.95476,-1.00609 0.42605,0 0.9445,0.30798 0.9445,0.94962 0,0.31826 -0.12833,0.9445 -1.05743,0.9445 0.55438,1.26788 1.77093,1.65799 2.61276,1.65799 1.79146,0 2.72055,-1.38594 2.72055,-2.83861 0,-1.55534 -1.10875,-2.78728 -1.68366,-3.42892 l -4.30669,-4.26049 c -0.18479,-0.15913 -0.18479,-0.20019 -0.18479,-0.69811 h 7.37116 z"
             id="path1982"
             style="fill:#000000;stroke-width:0" />
          <path
             d="m 397.38585,327.72429 h 0.0821 0.0821 l 0.077,0.005 h 0.0411 l 0.0411,0.005 h 0.0359 l 0.0411,0.005 0.0359,0.005 0.0359,0.005 0.0359,0.0103 0.0359,0.0103 0.0359,0.0103 0.0308,0.0103 0.0308,0.0103 0.0308,0.0154 0.0257,0.0154 0.0308,0.0205 0.0257,0.0154 0.0205,0.0257 0.0205,0.0205 0.0205,0.0257 0.0103,0.0154 0.0103,0.0154 0.005,0.0154 0.0103,0.0154 0.005,0.0154 0.0103,0.0154 0.005,0.0205 0.005,0.0154 0.005,0.0205 v 0.0205 l 0.005,0.0205 0.005,0.0205 v 0.0205 l 0.005,0.0205 v 0.0257 0.0205 c 0,0.51331 -0.46712,0.51331 -0.8983,0.51331 h -13.83266 c -0.43631,0 -0.89316,0 -0.89316,-0.51331 0,-0.51331 0.45685,-0.51331 0.89316,-0.51331 z"
             id="path1984"
             style="fill:#000000;stroke-width:0" />
          <path
             d="m 409.34088,323.81799 2.71542,2.63329 c 3.9833,3.52645 5.52324,4.90726 5.52324,7.46355 0,2.92075 -2.29964,4.96886 -5.42057,4.96886 -2.89508,0 -4.7892,-2.36123 -4.7892,-4.63521 0,-1.43214 1.28328,-1.43214 1.35514,-1.43214 0.44145,0 1.33461,0.30799 1.33461,1.35515 0,0.6673 -0.46198,1.33461 -1.35514,1.33461 -0.20533,0 -0.25666,0 -0.33366,-0.0257 0.59031,1.66313 1.96599,2.60763 3.44946,2.60763 2.3253,0 3.43406,-2.07892 3.43406,-4.17323 0,-2.04298 -1.28328,-4.06543 -2.68462,-5.65156 l -4.9124,-5.47191 c -0.28745,-0.27718 -0.28745,-0.32852 -0.28745,-0.94449 h 9.49113 l 0.71864,4.45041 h -0.64164 c -0.12833,-0.76996 -0.30285,-1.89412 -0.55951,-2.2791 -0.18479,-0.20019 -1.86846,-0.20019 -2.4331,-0.20019 z"
             id="path1986"
             style="fill:#000000;stroke-width:0" />
          <path
             d="m 427.45053,329.57221 0.0154,0.0667 0.0154,0.077 0.0205,0.0821 0.0257,0.0924 0.0257,0.0975 0.0308,0.10779 0.0359,0.11293 0.0359,0.11293 0.0411,0.11806 0.0462,0.1232 0.0462,0.12832 0.0513,0.1232 0.0616,0.12833 0.0616,0.12832 0.0616,0.12833 0.0719,0.12833 0.077,0.1232 0.0821,0.12319 0.0821,0.11806 0.0924,0.11293 0.0975,0.11293 0.10266,0.10266 0.10267,0.0975 0.11806,0.0924 0.11806,0.0821 0.1232,0.0719 0.0667,0.0359 0.0667,0.0308 0.0667,0.0257 0.0719,0.0257 0.0719,0.0257 0.0719,0.0205 0.0719,0.0154 0.077,0.0154 0.0821,0.0103 0.077,0.0103 0.0821,0.005 h 0.0821 c 0.12833,0 0.73917,0 1.27815,-0.32852 -0.7135,-0.12832 -1.22681,-0.76996 -1.22681,-1.3808 0,-0.40552 0.27718,-0.8983 0.97016,-0.8983 0.55951,0 1.37567,0.45685 1.37567,1.48347 0,1.33461 -1.504,1.68366 -2.3715,1.68366 -1.48347,0 -2.38177,-1.35514 -2.68462,-1.94031 -0.64164,1.68366 -2.02245,1.94031 -2.76162,1.94031 -2.66409,0 -4.12189,-3.29546 -4.12189,-3.9371 0,-0.25665 0.25665,-0.25665 0.31312,-0.25665 0.20019,0 0.28232,0.0565 0.32852,0.28232 0.86749,2.71028 2.55629,3.35192 3.42379,3.35192 0.48764,0 1.38081,-0.22585 1.38081,-1.70932 0,-0.7905 -0.43632,-2.5101 -1.38081,-6.08788 -0.41065,-1.58614 -1.29868,-2.65896 -2.42797,-2.65896 -0.15399,0 -0.73917,0 -1.27815,0.33365 0.64164,0.1232 1.20115,0.65704 1.20115,1.38081 0,0.68784 -0.55951,0.88803 -0.94449,0.88803 -0.76997,0 -1.41161,-0.66217 -1.41161,-1.48347 0,-1.17035 1.28328,-1.68366 2.40744,-1.68366 1.69393,0 2.60762,1.79146 2.68462,1.94032 0.30798,-0.9445 1.22681,-1.94032 2.76162,-1.94032 2.63842,0 4.09622,3.29546 4.09622,3.9371 0,0.25666 -0.23099,0.25666 -0.31312,0.25666 -0.22072,0 -0.27718,-0.10267 -0.32852,-0.27719 -0.84183,-2.73595 -2.58195,-3.35193 -3.39812,-3.35193 -1.00096,0 -1.41161,0.81617 -1.41161,1.6888 0,0.56464 0.154,1.12415 0.44145,2.2483 z"
             id="path1988"
             style="fill:#000000;stroke-width:0" />
          <path
             d="m 449.6256,327.72429 h 7.13504 c 0.35931,0 0.87263,0 0.87263,0.51331 0,0.51331 -0.51332,0.51331 -0.87263,0.51331 h -7.13504 v 7.16584 c 0,0.34905 0,0.84183 -0.51331,0.84183 -0.50305,0 -0.50305,-0.49278 -0.50305,-0.84183 v -7.16584 h -7.1607 c -0.35932,0 -0.84183,0 -0.84183,-0.51331 0,-0.51331 0.48251,-0.51331 0.84183,-0.51331 h 7.1607 v -7.15557 c 0,-0.35932 0,-0.84696 0.50305,-0.84696 0.51331,0 0.51331,0.48764 0.51331,0.84696 z"
             id="path1990"
             style="fill:#000000;stroke-width:0" />
          <path
             d="m 472.26266,326.06629 v -2.22264 c 0,-0.92396 -0.0513,-1.20115 -1.95059,-1.20115 h -0.56464 v -0.79563 c 1.07795,0.0821 2.41256,0.0821 3.49052,0.0821 1.07795,0 2.41256,0 3.43919,-0.0821 v 0.79563 h -0.51331 c -1.89926,0 -1.95059,0.27719 -1.95059,1.20115 v 2.22264 h 2.56656 v 0.7905 h -2.56656 v 11.64192 c 0,0.51331 0,0.66217 -0.41065,0.66217 -0.20532,0 -0.30799,0 -0.51331,-0.31312 l -7.85367,-11.99097 h 0.71863 l 6.26241,9.53734 v -9.53734 h -6.26241 -0.71863 v -0.7905 z"
             id="path1992"
             style="fill:#000000;stroke-width:0" />
          <polyline
             transform="matrix(0.51331189,0,0,0.51331189,6.6921332,113.33958)"
             points="593,386 1041.4,386 1041.4,388.04 593,388.04 "
             id="polyline1994"
             style="fill:#000000;fill-rule:nonzero;stroke-width:0" />
          <path
             d="m 254.34914,290.95063 0.0154,0.0667 0.0205,0.077 0.0205,0.0821 0.0205,0.0924 0.0308,0.10266 0.0308,0.10267 0.0308,0.11292 0.0359,0.11293 0.0411,0.1232 0.0462,0.12319 0.0513,0.1232 0.0513,0.12832 0.0565,0.12833 0.0616,0.12833 0.0667,0.12833 0.0719,0.12319 0.077,0.1232 0.077,0.12319 0.0873,0.11807 0.0924,0.11806 0.0924,0.10779 0.10266,0.10266 0.10779,0.0975 0.11293,0.0924 0.11807,0.0821 0.12832,0.0719 0.0616,0.0359 0.0667,0.0308 0.0719,0.0257 0.0667,0.0257 0.0719,0.0257 0.0719,0.0205 0.077,0.0154 0.077,0.0154 0.077,0.0103 0.0821,0.0103 0.0821,0.005 h 0.0821 c 0.12833,0 0.73917,0 1.27302,-0.32852 -0.71351,-0.12833 -1.22682,-0.76997 -1.22682,-1.38081 0,-0.40552 0.28232,-0.8983 0.97016,-0.8983 0.56464,0 1.38081,0.46198 1.38081,1.48861 0,1.32948 -1.50914,1.68366 -2.37663,1.68366 -1.48348,0 -2.38177,-1.35514 -2.68463,-1.94032 -0.64164,1.68366 -2.02244,1.94032 -2.75648,1.94032 -2.66409,0 -4.12703,-3.30059 -4.12703,-3.94223 0,-0.25666 0.25666,-0.25666 0.31312,-0.25666 0.20019,0 0.28232,0.0565 0.32852,0.28232 0.8675,2.71029 2.56143,3.35193 3.42892,3.35193 0.48765,0 1.37568,-0.22073 1.37568,-1.70933 0,-0.7905 -0.43118,-2.5101 -1.37568,-6.08275 -0.41064,-1.59126 -1.30381,-2.66409 -2.43309,-2.66409 -0.154,0 -0.73917,0 -1.27302,0.33366 0.64164,0.12319 1.20115,0.66217 1.20115,1.38081 0,0.69297 -0.55951,0.89316 -0.94449,0.89316 -0.76997,0 -1.41161,-0.66731 -1.41161,-1.48347 0,-1.17549 1.28328,-1.6888 2.4023,-1.6888 1.69393,0 2.60763,1.79146 2.68976,1.94545 0.30285,-0.94962 1.22681,-1.94545 2.75648,-1.94545 2.63842,0 4.10136,3.3006 4.10136,3.94224 0,0.25665 -0.23099,0.25665 -0.31312,0.25665 -0.22586,0 -0.28232,-0.10779 -0.32852,-0.28232 -0.84183,-2.73595 -2.58196,-3.35193 -3.40326,-3.35193 -1.00095,0 -1.4116,0.81617 -1.4116,1.6888 0,0.56464 0.15399,1.12415 0.44144,2.24831 z"
             id="path1996"
             style="fill:#000000;stroke-width:0" />
          <path
             d="m 276.59095,289.1027 h 7.14016 c 0.35419,0 0.84184,0 0.84184,0.51332 0,0.51331 -0.48765,0.51331 -0.84184,0.51331 h -7.14016 v 7.16583 c 0,0.34905 0,0.84183 -0.51332,0.84183 -0.50304,0 -0.50304,-0.49278 -0.50304,-0.84183 v -7.16583 h -7.16584 c -0.35931,0 -0.84183,0 -0.84183,-0.51331 0,-0.51332 0.48252,-0.51332 0.84183,-0.51332 h 7.16584 v -7.15043 c 0,-0.36445 0,-0.8521 0.50304,-0.8521 0.51332,0 0.51332,0.48765 0.51332,0.8521 z"
             id="path1998"
             style="fill:#000000;stroke-width:0" />
          <path
             d="m 294.94185,285.1964 2.71028,2.63329 c 3.98844,3.52645 5.52837,4.90726 5.52837,7.46869 0,2.91561 -2.30477,4.96372 -5.42057,4.96372 -2.89508,0 -4.7892,-2.36123 -4.7892,-4.6352 0,-1.42701 1.28328,-1.42701 1.35514,-1.42701 0.44145,0 1.32948,0.30286 1.32948,1.35514 0,0.66218 -0.45685,1.32948 -1.35514,1.32948 -0.2002,0 -0.25666,0 -0.32852,-0.0257 0.58517,1.66313 1.96598,2.60762 3.44945,2.60762 2.32531,0 3.43406,-2.07891 3.43406,-4.16809 0,-2.04812 -1.28328,-4.07056 -2.68976,-5.6567 l -4.90726,-5.4719 c -0.28745,-0.27719 -0.28745,-0.32852 -0.28745,-0.9445 h 9.486 l 0.72377,4.45042 h -0.64164 c -0.12833,-0.76997 -0.30285,-1.88899 -0.55951,-2.27397 -0.18479,-0.20533 -1.87359,-0.20533 -2.4331,-0.20533 z"
             id="path2000"
             style="fill:#000000;stroke-width:0" />
          <path
             d="m 317.61529,290.23344 -0.005,0.99974 -0.0257,1.04384 -0.0513,1.08797 -0.0719,1.11736 -0.0975,1.15411 -0.12833,1.18352 -0.15913,1.19822 -0.20019,1.22028 -0.11293,0.61014 -0.12319,0.61748 -0.13346,0.61749 -0.14886,0.61748 -0.154,0.61749 -0.16939,0.62484 -0.17966,0.61749 -0.19506,0.61748 -0.20532,0.61014 -0.22073,0.61749 -0.23099,0.60279 -0.24639,0.61014 -0.26179,0.59543 -0.27718,0.59543 -0.28746,0.59544 -0.30799,0.58073 c -0.25665,0.43372 -1.91465,3.22711 -2.3715,3.22711 -0.12832,0 -0.31312,-0.0809 -0.31312,-0.36754 0,-0.14704 0.0565,-0.26465 0.14886,-0.36756 1.22682,-1.90393 2.89508,-4.86639 3.93711,-10.69578 0.59544,-3.33002 0.83156,-7.10846 0.83156,-10.50464 0,-3.69758 -0.23612,-7.44661 -0.89829,-11.02657 -0.9753,-5.13839 -2.4793,-8.0641 -3.78825,-10.1077 -0.23099,-0.33814 -0.23099,-0.4043 -0.23099,-0.48517 0,-0.28669 0.1848,-0.36755 0.31312,-0.36755 0.37472,0 1.78633,2.24207 2.08918,2.75665 2.60763,4.42532 4.27589,11.01921 4.27589,19.18623 z"
             id="path2002"
             style="fill:#000000;stroke-width:0" />
          <path
             d="m 355.9849,290.95063 0.0154,0.0667 0.0205,0.077 0.0205,0.0821 0.0205,0.0924 0.0308,0.10266 0.0308,0.10267 0.0308,0.11292 0.0359,0.11293 0.0411,0.1232 0.0462,0.12319 0.0513,0.1232 0.0513,0.12832 0.0565,0.12833 0.0616,0.12833 0.0667,0.12833 0.0719,0.12319 0.077,0.1232 0.077,0.12319 0.0873,0.11807 0.0924,0.11806 0.0924,0.10779 0.10266,0.10266 0.1078,0.0975 0.11293,0.0924 0.11806,0.0821 0.12833,0.0719 0.0616,0.0359 0.0667,0.0308 0.0719,0.0257 0.0667,0.0257 0.0719,0.0257 0.0719,0.0205 0.077,0.0154 0.077,0.0154 0.077,0.0103 0.0821,0.0103 0.0821,0.005 h 0.0821 c 0.12832,0 0.73403,0 1.27301,-0.32852 -0.7135,-0.12833 -1.22681,-0.76997 -1.22681,-1.38081 0,-0.40552 0.28232,-0.8983 0.97015,-0.8983 0.56465,0 1.38081,0.46198 1.38081,1.48861 0,1.32948 -1.50913,1.68366 -2.3715,1.68366 -1.4886,0 -2.3869,-1.35514 -2.68975,-1.94032 -0.64164,1.68366 -2.02245,1.94032 -2.76162,1.94032 -2.65896,0 -4.12189,-3.30059 -4.12189,-3.94223 0,-0.25666 0.25665,-0.25666 0.31312,-0.25666 0.20019,0 0.28232,0.0565 0.32852,0.28232 0.86749,2.71029 2.56142,3.35193 3.42892,3.35193 0.48765,0 1.37567,-0.22073 1.37567,-1.70933 0,-0.7905 -0.43118,-2.5101 -1.37567,-6.08275 -0.41065,-1.59126 -1.29868,-2.66409 -2.4331,-2.66409 -0.14886,0 -0.73917,0 -1.27301,0.33366 0.64164,0.12319 1.20115,0.66217 1.20115,1.38081 0,0.69297 -0.55951,0.89316 -0.9445,0.89316 -0.76996,0 -1.4116,-0.66731 -1.4116,-1.48347 0,-1.17549 1.28328,-1.6888 2.40743,-1.6888 1.68879,0 2.60249,1.79146 2.68462,1.94545 0.30285,-0.94962 1.22681,-1.94545 2.75648,-1.94545 2.64356,0 4.10137,3.3006 4.10137,3.94224 0,0.25665 -0.23613,0.25665 -0.31312,0.25665 -0.22586,0 -0.28233,-0.10779 -0.32852,-0.28232 -0.84184,-2.73595 -2.58196,-3.35193 -3.40326,-3.35193 -1.00096,0 -1.41161,0.81617 -1.41161,1.6888 0,0.56464 0.15399,1.12415 0.44145,2.24831 z"
             id="path2004"
             style="fill:#000000;stroke-width:0" />
          <path
             d="m 366.92871,298.50144 0.12832,-0.005 0.12833,-0.005 0.1232,-0.0154 0.12319,-0.0205 0.11806,-0.0257 0.11806,-0.0308 0.11293,-0.0359 0.1078,-0.0411 0.10779,-0.0513 0.10267,-0.0513 0.10266,-0.0616 0.0975,-0.0667 0.0924,-0.0667 0.0924,-0.077 0.0821,-0.0821 0.0821,-0.0873 0.077,-0.0924 0.077,-0.0975 0.0667,-0.1078 0.0667,-0.10779 0.0565,-0.11806 0.0565,-0.11806 0.0513,-0.12833 0.0462,-0.13346 0.0411,-0.13346 0.0359,-0.14373 0.0308,-0.14886 0.0257,-0.154 0.0205,-0.15912 0.0154,-0.1694 0.005,-0.16939 0.005,-0.17452 c 0,-2.22265 -1.29354,-2.87968 -2.3253,-2.87968 -0.7135,0 -2.2945,0.19505 -3.03881,1.25248 0.83157,0.0308 1.03176,0.62624 1.03176,1.00095 0,0.56978 -0.43118,0.98043 -0.98556,0.98043 -0.49791,0 -1.00096,-0.30799 -1.00096,-1.03689 0,-1.68366 1.85819,-2.77188 4.02437,-2.77188 2.48443,0 4.20402,1.66313 4.20402,3.45459 0,1.3962 -1.13955,2.79241 -3.1158,3.19793 1.87872,0.6827 2.56143,2.02245 2.56143,3.1158 0,1.41161 -1.6272,2.46903 -3.60859,2.46903 -1.99165,0 -3.50592,-0.97016 -3.50592,-2.39716 0,-0.61085 0.39525,-0.94963 0.9291,-0.94963 0.55437,0 0.90856,0.41065 0.90856,0.90856 0,0.51845 -0.35419,0.8983 -0.90856,0.92909 0.62624,0.79564 1.85305,0.98556 2.52036,0.98556 0.80077,0 1.93005,-0.39011 1.93005,-1.94545 0,-0.75457 -0.24639,-1.57587 -0.7135,-2.12511 -0.59031,-0.6827 -1.08822,-0.72377 -1.98652,-0.76997 -0.45171,-0.0411 -0.48251,-0.0411 -0.56978,-0.0565 -0.0411,0 -0.18479,-0.0359 -0.18479,-0.23613 0,-0.24639 0.15913,-0.24639 0.46712,-0.24639 z"
             id="path2006"
             style="fill:#000000;stroke-width:0" />
          <path
             d="m 518.42244,289.1027 h 7.12991 c 0.35931,0 0.87263,0 0.87263,0.51332 0,0.51331 -0.51332,0.51331 -0.87263,0.51331 h -7.12991 v 7.16583 c 0,0.34905 0,0.84183 -0.51331,0.84183 -0.50304,0 -0.50304,-0.49278 -0.50304,-0.84183 v -7.16583 h -7.1607 c -0.36446,0 -0.84697,0 -0.84697,-0.51331 0,-0.51332 0.48251,-0.51332 0.84697,-0.51332 h 7.1607 v -7.15043 c 0,-0.36445 0,-0.8521 0.50304,-0.8521 0.51331,0 0.51331,0.48765 0.51331,0.8521 z"
             id="path2008"
             style="fill:#000000;stroke-width:0" />
          <path
             d="m 541.05437,299.5948 v 0.0308 0.0257 0.0257 0.0257 0.0257 0.0257 0.0205 0.0257 0.0205 0.0205 0.0205 0.0205 0.0205 0.0205 0.0154 0.0205 0.0308 l -0.0513,0.0308 v 0.0257 0.0257 0.0257 0.0205 0.0205 l -0.0513,0.0205 v 0.0154 0.0103 l -0.0513,0.0154 v 0.0103 0.0103 l -0.0513,0.005 v 0.005 0 0.005 l -0.0513,0.005 v 0 0.005 h -0.0513 v 0.005 0 h -0.0513 v 0.005 0 h -0.0513 v 0 h -0.0513 v 0.005 h -0.0513 v 0 h -0.0513 v 0 h -0.0513 c -1.59127,-1.63746 -3.79851,-1.63746 -4.61981,-1.63746 v -0.79563 c 0.51332,0 2.00192,0 3.33653,0.6673 v -13.24858 c 0,-0.92396 -0.10266,-1.22681 -2.36123,-1.22681 h -0.8213 v -0.79564 c 0.87263,0.0821 3.07987,0.0821 4.10649,0.0821 1.02663,0 3.2852,0 4.15783,-0.0821 v 0.79564 h -0.8213 c -2.3099,0 -2.36123,0.27718 -2.36123,1.22681 z"
             id="path2010"
             style="fill:#000000;stroke-width:0" />
          <path
             d="m 338.73248,246.07996 h 0.0821 0.077 l 0.0821,0.005 h 0.0411 l 0.0411,0.005 h 0.0359 l 0.0411,0.005 0.0359,0.005 0.0359,0.005 0.0359,0.0103 0.0359,0.0103 0.0359,0.0103 0.0308,0.0103 0.0308,0.0103 0.0308,0.0154 0.0257,0.0154 0.0308,0.0205 0.0257,0.0154 0.0205,0.0257 0.0205,0.0205 0.0205,0.0257 0.0103,0.0154 0.0103,0.0154 0.005,0.0154 0.0103,0.0154 0.005,0.0154 0.005,0.0154 0.0103,0.0205 0.005,0.0154 0.005,0.0205 v 0.0205 l 0.005,0.0205 0.005,0.0205 v 0.0205 0.0205 l 0.005,0.0257 v 0.0205 c 0,0.51331 -0.46711,0.51331 -0.8983,0.51331 H 324.8936 c -0.43119,0 -0.88803,0 -0.88803,-0.51331 0,-0.51331 0.45684,-0.51331 0.88803,-0.51331 z"
             id="path2012"
             style="fill:#ff0000;fill-opacity:1;stroke:#ff0000;stroke-width:0.5291667;stroke-miterlimit:10.43299961;stroke-dasharray:none;stroke-opacity:1" />
          <path
             d="m 355.9849,260.27511 0.0154,0.0667 0.0205,0.077 0.0205,0.0821 0.0205,0.0924 0.0308,0.0975 0.0308,0.1078 0.0308,0.11293 0.0359,0.11292 0.0411,0.11807 0.0462,0.12319 0.0513,0.12833 0.0513,0.12319 0.0565,0.12833 0.0616,0.12833 0.0667,0.12833 0.0719,0.12833 0.077,0.12319 0.077,0.12319 0.0873,0.11807 0.0924,0.11293 0.0924,0.11292 0.10266,0.10267 0.1078,0.0975 0.11293,0.0924 0.11806,0.0821 0.12833,0.0719 0.0616,0.0359 0.0667,0.0308 0.0719,0.0257 0.0667,0.0257 0.0719,0.0257 0.0719,0.0205 0.077,0.0154 0.077,0.0154 0.077,0.0103 0.0821,0.0103 0.0821,0.005 h 0.0821 c 0.12832,0 0.73403,0 1.27301,-0.32852 -0.7135,-0.12833 -1.22681,-0.76997 -1.22681,-1.38081 0,-0.40552 0.28232,-0.8983 0.97015,-0.8983 0.56465,0 1.38081,0.45685 1.38081,1.48348 0,1.33461 -1.50913,1.68366 -2.3715,1.68366 -1.4886,0 -2.3869,-1.35514 -2.68975,-1.94032 -0.64164,1.68366 -2.02245,1.94032 -2.76162,1.94032 -2.65896,0 -4.12189,-3.29546 -4.12189,-3.9371 0,-0.25666 0.25665,-0.25666 0.31312,-0.25666 0.20019,0 0.28232,0.0565 0.32852,0.28232 0.86749,2.71029 2.56142,3.35193 3.42892,3.35193 0.48765,0 1.37567,-0.22586 1.37567,-1.70933 0,-0.7905 -0.43118,-2.51009 -1.37567,-6.08788 -0.41065,-1.58613 -1.29868,-2.65895 -2.4331,-2.65895 -0.14886,0 -0.73917,0 -1.27301,0.33365 0.64164,0.12319 1.20115,0.65704 1.20115,1.38081 0,0.68784 -0.55951,0.88803 -0.9445,0.88803 -0.76996,0 -1.4116,-0.66217 -1.4116,-1.48347 0,-1.17036 1.28328,-1.68367 2.40743,-1.68367 1.68879,0 2.60249,1.79146 2.68462,1.94032 0.30285,-0.94449 1.22681,-1.94032 2.75648,-1.94032 2.64356,0 4.10137,3.29547 4.10137,3.93711 0,0.25665 -0.23613,0.25665 -0.31312,0.25665 -0.22586,0 -0.28233,-0.10266 -0.32852,-0.27719 -0.84184,-2.73595 -2.58196,-3.35192 -3.40326,-3.35192 -1.00096,0 -1.41161,0.81616 -1.41161,1.68879 0,0.56465 0.15399,1.12416 0.44145,2.24831 z"
             id="path2014"
             style="fill:#000000;stroke-width:0" />
          <path
             d="m 366.92871,267.76433 0.12832,-0.005 0.12833,-0.005 0.1232,-0.0154 0.12319,-0.0205 0.11806,-0.0257 0.11806,-0.0308 0.11293,-0.0359 0.1078,-0.0411 0.10779,-0.0513 0.10267,-0.0513 0.10266,-0.0616 0.0975,-0.0616 0.0924,-0.0719 0.0924,-0.077 0.0821,-0.0821 0.0821,-0.0873 0.077,-0.0924 0.077,-0.0975 0.0667,-0.10779 0.0667,-0.1078 0.0565,-0.11806 0.0565,-0.11806 0.0513,-0.12833 0.0462,-0.12833 0.0411,-0.13859 0.0359,-0.14373 0.0308,-0.14886 0.0257,-0.15399 0.0205,-0.15913 0.0154,-0.16426 0.005,-0.17452 0.005,-0.17453 c 0,-2.22264 -1.29354,-2.87968 -2.3253,-2.87968 -0.7135,0 -2.2945,0.19506 -3.03881,1.25248 0.83157,0.0308 1.03176,0.62624 1.03176,1.00096 0,0.56977 -0.43118,0.98042 -0.98556,0.98042 -0.49791,0 -1.00096,-0.30798 -1.00096,-1.03689 0,-1.68366 1.85819,-2.77188 4.02437,-2.77188 2.48443,0 4.20402,1.66826 4.20402,3.45459 0,1.39621 -1.13955,2.79242 -3.1158,3.19793 1.87872,0.68271 2.56143,2.02245 2.56143,3.11581 0,1.4116 -1.6272,2.46903 -3.60859,2.46903 -1.99165,0 -3.50592,-0.97016 -3.50592,-2.39717 0,-0.61084 0.39525,-0.94963 0.9291,-0.94963 0.55437,0 0.90856,0.41065 0.90856,0.90856 0,0.52358 -0.35419,0.8983 -0.90856,0.9291 0.62624,0.79563 1.85305,0.98556 2.52036,0.98556 0.80077,0 1.93005,-0.39012 1.93005,-1.94545 0,-0.75457 -0.24639,-1.57587 -0.7135,-2.12512 -0.59031,-0.6827 -1.08822,-0.72377 -1.98652,-0.76996 -0.45171,-0.0411 -0.48251,-0.0411 -0.56978,-0.0565 -0.0411,0 -0.18479,-0.0359 -0.18479,-0.23612 0,-0.24639 0.15913,-0.24639 0.46712,-0.24639 z"
             id="path2016"
             style="fill:#000000;stroke-width:0" />
          <path
             d="m 395.44936,246.07996 h 0.0821 0.0821 l 0.077,0.005 h 0.0411 l 0.0411,0.005 h 0.0359 l 0.0411,0.005 0.0359,0.005 0.0359,0.005 0.0359,0.0103 0.0359,0.0103 0.0359,0.0103 0.0308,0.0103 0.0308,0.0103 0.0308,0.0154 0.0308,0.0154 0.0257,0.0205 0.0257,0.0154 0.0205,0.0257 0.0257,0.0205 0.0205,0.0257 0.005,0.0154 0.0103,0.0154 0.0103,0.0154 0.005,0.0154 0.005,0.0154 0.0103,0.0154 0.005,0.0205 0.005,0.0154 0.005,0.0205 0.005,0.0205 v 0.0205 l 0.005,0.0205 v 0.0205 l 0.005,0.0205 v 0.0257 0.0205 c 0,0.51331 -0.46711,0.51331 -0.89829,0.51331 h -13.83376 c -0.43631,0 -0.89316,0 -0.89316,-0.51331 0,-0.51331 0.45685,-0.51331 0.89316,-0.51331 z"
             id="path2018"
             style="fill:#ff0000;fill-opacity:1;stroke:#ff0000;stroke-width:0.5291667;stroke-miterlimit:10.43299961;stroke-dasharray:none;stroke-opacity:1" />
          <path
             d="m 408.03985,254.52088 2.71029,2.63329 c 3.9833,3.52645 5.52324,4.90726 5.52324,7.46356 0,2.92074 -2.29964,4.96886 -5.42058,4.96886 -2.89507,0 -4.7892,-2.36124 -4.7892,-4.63521 0,-1.43214 1.28328,-1.43214 1.35515,-1.43214 0.44145,0 1.33461,0.30799 1.33461,1.35514 0,0.66731 -0.45685,1.33461 -1.35514,1.33461 -0.2002,0 -0.25666,0 -0.32852,-0.0257 0.58517,1.66313 1.96085,2.60762 3.44945,2.60762 2.3253,0 3.42892,-2.07891 3.42892,-4.17322 0,-2.04298 -1.28327,-4.06543 -2.68462,-5.65157 l -4.91239,-5.4719 c -0.28746,-0.27719 -0.28746,-0.32852 -0.28746,-0.9445 h 9.49114 l 0.71864,4.45042 h -0.64164 c -0.12833,-0.76997 -0.30286,-1.89412 -0.55951,-2.27911 -0.18479,-0.20019 -1.86846,-0.20019 -2.4331,-0.20019 z"
             id="path2020"
             style="fill:#000000;stroke-width:0" />
          <path
             d="m 426.14437,260.27511 0.0154,0.0667 0.0154,0.077 0.0205,0.0821 0.0257,0.0924 0.0257,0.0975 0.0308,0.1078 0.0359,0.11293 0.0359,0.11292 0.0411,0.11807 0.0462,0.12319 0.0462,0.12833 0.0565,0.12319 0.0565,0.12833 0.0616,0.12833 0.0667,0.12833 0.0667,0.12833 0.077,0.12319 0.0821,0.12319 0.0821,0.11807 0.0924,0.11293 0.0975,0.11292 0.10266,0.10267 0.1078,0.0975 0.11293,0.0924 0.11806,0.0821 0.12319,0.0719 0.0667,0.0359 0.0667,0.0308 0.0667,0.0257 0.0719,0.0257 0.0719,0.0257 0.0719,0.0205 0.077,0.0154 0.0719,0.0154 0.0821,0.0103 0.077,0.0103 0.0821,0.005 h 0.0821 c 0.12833,0 0.73917,0 1.27815,-0.32852 -0.7135,-0.12833 -1.22682,-0.76997 -1.22682,-1.38081 0,-0.40552 0.27719,-0.8983 0.97016,-0.8983 0.55951,0 1.38081,0.45685 1.38081,1.48348 0,1.33461 -1.50913,1.68366 -2.37663,1.68366 -1.48347,0 -2.38177,-1.35514 -2.68462,-1.94032 -0.64164,1.68366 -2.02245,1.94032 -2.76162,1.94032 -2.66409,0 -4.1219,-3.29546 -4.1219,-3.9371 0,-0.25666 0.25666,-0.25666 0.31313,-0.25666 0.20019,0 0.28232,0.0565 0.32851,0.28232 0.8675,2.71029 2.5563,3.35193 3.4238,3.35193 0.48764,0 1.3808,-0.22586 1.3808,-1.70933 0,-0.7905 -0.43118,-2.51009 -1.3808,-6.08788 -0.41065,-1.58613 -1.29868,-2.65895 -2.42797,-2.65895 -0.15399,0 -0.73917,0 -1.27815,0.33365 0.64164,0.12319 1.20629,0.65704 1.20629,1.38081 0,0.68784 -0.56465,0.88803 -0.94963,0.88803 -0.76997,0 -1.41161,-0.66217 -1.41161,-1.48347 0,-1.17036 1.28328,-1.68367 2.40743,-1.68367 1.69393,0 2.60763,1.79146 2.68463,1.94032 0.30798,-0.94449 1.23194,-1.94032 2.76161,-1.94032 2.63843,0 4.09623,3.29547 4.09623,3.93711 0,0.25665 -0.23099,0.25665 -0.31312,0.25665 -0.22072,0 -0.27719,-0.10266 -0.32852,-0.27719 -0.84183,-2.73595 -2.58196,-3.35192 -3.39812,-3.35192 -1.00096,0 -1.41161,0.81616 -1.41161,1.68879 0,0.56465 0.15399,1.12416 0.44145,2.24831 z"
             id="path2022"
             style="fill:#000000;stroke-width:0" />
          <path
             d="m 441.2306,265.04378 h -0.60571 c -0.0513,-0.39012 -0.23612,-1.45268 -0.46711,-1.6272 -0.13346,-0.10267 -1.51427,-0.10267 -1.76579,-0.10267 h -3.29547 c 1.87873,1.658 2.50497,2.15591 3.57779,2.99775 1.32434,1.05742 2.55629,2.16617 2.55629,3.86523 0,2.16618 -1.88899,3.49053 -4.18349,3.49053 -2.21237,0 -3.72151,-1.55534 -3.72151,-3.19794 0,-0.91883 0.76997,-1.00609 0.95476,-1.00609 0.42605,0 0.94449,0.30799 0.94449,0.94963 0,0.31825 -0.12833,0.94449 -1.05742,0.94449 0.55438,1.26788 1.77093,1.658 2.61276,1.658 1.79146,0 2.72055,-1.38594 2.72055,-2.83862 0,-1.55533 -1.10875,-2.78728 -1.68366,-3.42892 l -4.30669,-4.26049 c -0.18479,-0.15912 -0.18479,-0.20019 -0.18479,-0.6981 h 7.37116 z"
             id="path2024"
             style="fill:#000000;stroke-width:0" />
          <polyline
             transform="matrix(0.51331189,0,0,0.51331189,11.9838,109.8118)"
             points="593,251 841.4,251 841.4,253.04 593,253.04 "
             id="polyline2026"
             style="fill:#000000;fill-rule:nonzero;stroke-width:0" />
          <path
             d="m 396.07969,220.05712 h 0.0821 0.0821 0.077 l 0.0411,0.005 h 0.0411 l 0.0359,0.005 0.0411,0.005 0.0359,0.005 0.0359,0.005 0.0359,0.005 0.0359,0.0103 0.0359,0.0103 0.0308,0.0103 0.0308,0.0103 0.0308,0.0154 0.0308,0.0154 0.0257,0.0205 0.0257,0.0205 0.0205,0.0205 0.0257,0.0257 0.0205,0.0257 0.005,0.0103 0.0103,0.0154 0.0103,0.0154 0.005,0.0154 0.005,0.0154 0.0103,0.0205 0.005,0.0154 0.005,0.0154 0.005,0.0205 0.005,0.0205 v 0.0205 l 0.005,0.0205 v 0.0205 l 0.005,0.0205 v 0.0257 0.0257 c 0,0.51332 -0.46711,0.51332 -0.89829,0.51332 h -13.83376 c -0.43631,0 -0.89316,0 -0.89316,-0.51332 0,-0.51331 0.45685,-0.51331 0.89316,-0.51331 z"
             id="path2028"
             style="fill:#000000;stroke-width:0" />
          <path
             d="m 408.03985,216.15082 2.71029,2.62816 c 3.9833,3.53158 5.52324,4.90726 5.52324,7.46868 0,2.92075 -2.29964,4.96373 -5.42058,4.96373 -2.89507,0 -4.7892,-2.3561 -4.7892,-4.63521 0,-1.427 1.28328,-1.427 1.35515,-1.427 0.44145,0 1.33461,0.30285 1.33461,1.35514 0,0.66217 -0.45685,1.32948 -1.35514,1.32948 -0.2002,0 -0.25666,0 -0.32852,-0.0257 0.58517,1.66313 1.96085,2.60763 3.44945,2.60763 2.3253,0 3.42892,-2.07378 3.42892,-4.1681 0,-2.04811 -1.28327,-4.06543 -2.68462,-5.65669 l -4.91239,-5.46678 c -0.28746,-0.28232 -0.28746,-0.32851 -0.28746,-0.94962 h 9.49114 l 0.71864,4.45041 h -0.64164 c -0.12833,-0.76997 -0.30286,-1.88899 -0.55951,-2.27397 -0.18479,-0.20019 -1.86846,-0.20019 -2.4331,-0.20019 z"
             id="path2030"
             style="fill:#000000;stroke-width:0" />
          <path
             d="m 426.14437,221.89991 0.0154,0.0667 0.0154,0.077 0.0205,0.0821 0.0257,0.0924 0.0257,0.10267 0.0308,0.10266 0.0359,0.11293 0.0359,0.11293 0.0411,0.12319 0.0462,0.1232 0.0462,0.12319 0.0565,0.12833 0.0565,0.12833 0.0616,0.12833 0.0667,0.12832 0.0667,0.1232 0.077,0.12319 0.0821,0.1232 0.0821,0.11806 0.0924,0.11806 0.0975,0.1078 0.10266,0.10266 0.1078,0.0975 0.11293,0.0924 0.11806,0.0821 0.12319,0.0719 0.0667,0.0359 0.0667,0.0308 0.0667,0.0257 0.0719,0.0257 0.0719,0.0257 0.0719,0.0205 0.077,0.0154 0.0719,0.0154 0.0821,0.0103 0.077,0.0103 0.0821,0.005 h 0.0821 c 0.12833,0 0.73917,0 1.27815,-0.32852 -0.7135,-0.12833 -1.22682,-0.76997 -1.22682,-1.37567 0,-0.41065 0.27719,-0.8983 0.97016,-0.8983 0.55951,0 1.38081,0.45685 1.38081,1.48347 0,1.32948 -1.50913,1.68367 -2.37663,1.68367 -1.48347,0 -2.38177,-1.35515 -2.68462,-1.94032 -0.64164,1.68366 -2.02245,1.94032 -2.76162,1.94032 -2.66409,0 -4.1219,-3.29547 -4.1219,-3.93711 0,-0.25665 0.25666,-0.25665 0.31313,-0.25665 0.20019,0 0.28232,0.0565 0.32851,0.27719 0.8675,2.71028 2.5563,3.35192 3.4238,3.35192 0.48764,0 1.3808,-0.22072 1.3808,-1.70419 0,-0.79564 -0.43118,-2.5101 -1.3808,-6.08788 -0.41065,-1.59127 -1.29868,-2.66409 -2.42797,-2.66409 -0.15399,0 -0.73917,0 -1.27815,0.33879 0.64164,0.11806 1.20629,0.65703 1.20629,1.37567 0,0.69297 -0.56465,0.89316 -0.94963,0.89316 -0.76997,0 -1.41161,-0.6673 -1.41161,-1.48347 0,-1.17035 1.28328,-1.68366 2.40743,-1.68366 1.69393,0 2.60763,1.78632 2.68463,1.94032 0.30798,-0.94963 1.23194,-1.94032 2.76161,-1.94032 2.63843,0 4.09623,3.29546 4.09623,3.9371 0,0.25666 -0.23099,0.25666 -0.31312,0.25666 -0.22072,0 -0.27719,-0.1078 -0.32852,-0.28232 -0.84183,-2.73596 -2.58196,-3.35193 -3.39812,-3.35193 -1.00096,0 -1.41161,0.81617 -1.41161,1.69393 0,0.55951 0.15399,1.11902 0.44145,2.24317 z"
             id="path2032"
             style="fill:#000000;stroke-width:0" />
          <path
             d="m 441.2306,226.73018 h -0.60571 c -0.0513,-0.39012 -0.23612,-1.45268 -0.46711,-1.6272 -0.13346,-0.10266 -1.51427,-0.10266 -1.76579,-0.10266 h -3.29547 c 1.87873,1.65799 2.50497,2.15591 3.57779,2.99774 1.32434,1.05742 2.55629,2.16617 2.55629,3.86524 0,2.16617 -1.88899,3.49052 -4.18349,3.49052 -2.21237,0 -3.72151,-1.55534 -3.72151,-3.20307 0,-0.9137 0.76997,-1.00096 0.95476,-1.00096 0.42605,0 0.94449,0.30286 0.94449,0.9445 0,0.32338 -0.12833,0.94962 -1.05742,0.94962 0.55438,1.26788 1.77093,1.658 2.61276,1.658 1.79146,0 2.72055,-1.38594 2.72055,-2.83861 0,-1.55534 -1.10875,-2.79242 -1.68366,-3.43406 l -4.30669,-4.25536 c -0.18479,-0.16426 -0.18479,-0.20019 -0.18479,-0.6981 h 7.37116 z"
             id="path2034"
             style="fill:#000000;stroke-width:0" />
          <path
             d="m 408.03985,185.47017 2.71029,2.63329 c 3.9833,3.52645 5.52324,4.90726 5.52324,7.46868 0,2.91562 -2.29964,4.96373 -5.42058,4.96373 -2.89507,0 -4.7892,-2.36123 -4.7892,-4.63521 0,-1.43214 1.28328,-1.43214 1.35515,-1.43214 0.44145,0 1.33461,0.30799 1.33461,1.36028 0,0.66217 -0.45685,1.32948 -1.35514,1.32948 -0.2002,0 -0.25666,0 -0.32852,-0.0257 0.58517,1.66313 1.96085,2.60763 3.44945,2.60763 2.3253,0 3.42892,-2.07892 3.42892,-4.1681 0,-2.04811 -1.28327,-4.07056 -2.68462,-5.65669 l -4.91239,-5.47191 c -0.28746,-0.27719 -0.28746,-0.32852 -0.28746,-0.94449 h 9.49114 l 0.71864,4.45041 h -0.64164 c -0.12833,-0.76996 -0.30286,-1.89412 -0.55951,-2.2791 -0.18479,-0.20019 -1.86846,-0.20019 -2.4331,-0.20019 z"
             id="path2036"
             style="fill:#000000;stroke-width:0" />
          <path
             d="m 426.14437,191.22439 0.0154,0.0667 0.0154,0.077 0.0205,0.0821 0.0257,0.0924 0.0257,0.0975 0.0308,0.10779 0.0359,0.11293 0.0359,0.11293 0.0411,0.11806 0.0462,0.1232 0.0462,0.12832 0.0565,0.12833 0.0565,0.1232 0.0616,0.12832 0.0667,0.12833 0.0667,0.12833 0.077,0.12319 0.0821,0.1232 0.0821,0.11806 0.0924,0.11293 0.0975,0.11293 0.10266,0.10266 0.1078,0.0975 0.11293,0.0924 0.11806,0.0821 0.12319,0.0719 0.0667,0.0359 0.0667,0.0308 0.0667,0.0257 0.0719,0.0257 0.0719,0.0257 0.0719,0.0205 0.077,0.0154 0.0719,0.0154 0.0821,0.0103 0.077,0.0103 0.0821,0.005 h 0.0821 c 0.12833,0 0.73917,0 1.27815,-0.32852 -0.7135,-0.12832 -1.22682,-0.76996 -1.22682,-1.3808 0,-0.40552 0.27719,-0.8983 0.97016,-0.8983 0.55951,0 1.38081,0.45685 1.38081,1.48347 0,1.33461 -1.50913,1.6888 -2.37663,1.6888 -1.48347,0 -2.38177,-1.36028 -2.68462,-1.94546 -0.64164,1.6888 -2.02245,1.94546 -2.76162,1.94546 -2.66409,0 -4.1219,-3.3006 -4.1219,-3.94224 0,-0.25665 0.25666,-0.25665 0.31313,-0.25665 0.20019,0 0.28232,0.0565 0.32851,0.28232 0.8675,2.71028 2.5563,3.35192 3.4238,3.35192 0.48764,0 1.3808,-0.22585 1.3808,-1.70932 0,-0.79051 -0.43118,-2.5101 -1.3808,-6.08788 -0.41065,-1.58614 -1.29868,-2.65896 -2.42797,-2.65896 -0.15399,0 -0.73917,0 -1.27815,0.33365 0.64164,0.1232 1.20629,0.65704 1.20629,1.38081 0,0.68784 -0.56465,0.88803 -0.94963,0.88803 -0.76997,0 -1.41161,-0.66217 -1.41161,-1.48347 0,-1.17035 1.28328,-1.68366 2.40743,-1.68366 1.69393,0 2.60763,1.79146 2.68463,1.94032 0.30798,-0.9445 1.23194,-1.94032 2.76161,-1.94032 2.63843,0 4.09623,3.29546 4.09623,3.9371 0,0.25666 -0.23099,0.25666 -0.31312,0.25666 -0.22072,0 -0.27719,-0.10267 -0.32852,-0.27719 -0.84183,-2.73596 -2.58196,-3.35193 -3.39812,-3.35193 -1.00096,0 -1.41161,0.81617 -1.41161,1.6888 0,0.56464 0.15399,1.12415 0.44145,2.2483 z"
             id="path2038"
             style="fill:#000000;stroke-width:0" />
          <path
             d="m 441.2306,196.05979 h -0.60571 c -0.0513,-0.39525 -0.23612,-1.45267 -0.46711,-1.63233 -0.13346,-0.10266 -1.51427,-0.10266 -1.76579,-0.10266 h -3.29547 c 1.87873,1.65799 2.50497,2.15591 3.57779,2.99774 1.32434,1.06255 2.55629,2.16617 2.55629,3.87037 0,2.16104 -1.88899,3.48539 -4.18349,3.48539 -2.21237,0 -3.72151,-1.55534 -3.72151,-3.19794 0,-0.91369 0.76997,-1.00609 0.95476,-1.00609 0.42605,0 0.94449,0.30799 0.94449,0.94963 0,0.31825 -0.12833,0.94449 -1.05742,0.94449 0.55438,1.26788 1.77093,1.66313 2.61276,1.66313 1.79146,0 2.72055,-1.39107 2.72055,-2.83861 0,-1.56047 -1.10875,-2.79242 -1.68366,-3.43406 l -4.30669,-4.26049 c -0.18479,-0.15912 -0.18479,-0.20019 -0.18479,-0.6981 h 7.37116 z"
             id="path2040"
             style="fill:#000000;stroke-width:0" />
          <path
             d="m 459.78683,173.50146 h 7.13503 c 0.35419,0 0.84183,0 0.84183,0.51331 0,0.51331 -0.48764,0.51331 -0.84183,0.51331 h -7.13503 v 7.16584 c 0,0.34905 0,0.84183 -0.51332,0.84183 -0.50817,0 -0.50817,-0.49278 -0.50817,-0.84183 v -7.16584 h -7.1607 c -0.36446,0 -0.84184,0 -0.84184,-0.51331 0,-0.51331 0.47738,-0.51331 0.84184,-0.51331 h 7.1607 v -7.15043 c 0,-0.36446 0,-0.8521 0.50817,-0.8521 0.51332,0 0.51332,0.48764 0.51332,0.8521 z"
             id="path2042"
             style="fill:#ff0000;fill-opacity:1;stroke:#ff0000;stroke-width:0.5291667;stroke-miterlimit:10.43299961;stroke-dasharray:none;stroke-opacity:1" />
          <path
             d="m 482.40335,187.71847 v -2.22264 c 0,-0.92396 -0.0513,-1.20115 -1.94032,-1.20115 h -0.53898 v -0.79563 c 1.05229,0.0821 2.38177,0.0821 3.45459,0.0821 1.07796,0 2.4331,0 3.47512,-0.0821 v 0.79563 h -0.53897 c -1.88899,0 -1.94032,0.27719 -1.94032,1.20115 v 2.22264 h 2.56142 v 0.79564 h -2.56142 v 11.63678 c 0,0.51331 0,0.66217 -0.41065,0.66217 -0.23099,0 -0.30286,0 -0.51332,-0.31312 l -7.84853,-11.98583 h 0.71863 l 6.24188,9.5322 v -9.5322 h -6.24188 -0.71863 v -0.79564 z"
             id="path2044"
             style="fill:#000000;stroke-width:0" />
          <path
             d="m 496.24224,191.22439 0.0154,0.0667 0.0154,0.077 0.0205,0.0821 0.0257,0.0924 0.0257,0.0975 0.0308,0.10779 0.0359,0.11293 0.0359,0.11293 0.0411,0.11806 0.0462,0.1232 0.0462,0.12832 0.0513,0.12833 0.0616,0.1232 0.0616,0.12832 0.0616,0.12833 0.0719,0.12833 0.077,0.12319 0.0821,0.1232 0.0821,0.11806 0.0924,0.11293 0.0975,0.11293 0.10266,0.10266 0.10267,0.0975 0.11806,0.0924 0.11806,0.0821 0.1232,0.0719 0.0667,0.0359 0.0667,0.0308 0.0667,0.0257 0.0719,0.0257 0.0719,0.0257 0.0719,0.0205 0.0719,0.0154 0.077,0.0154 0.0821,0.0103 0.077,0.0103 0.0821,0.005 h 0.0821 c 0.12833,0 0.73917,0 1.27815,-0.32852 -0.7135,-0.12832 -1.22681,-0.76996 -1.22681,-1.3808 0,-0.40552 0.27718,-0.8983 0.97016,-0.8983 0.55951,0 1.37567,0.45685 1.37567,1.48347 0,1.33461 -1.504,1.6888 -2.3715,1.6888 -1.48347,0 -2.38177,-1.36028 -2.68462,-1.94546 -0.64164,1.6888 -2.02245,1.94546 -2.76162,1.94546 -2.66409,0 -4.12189,-3.3006 -4.12189,-3.94224 0,-0.25665 0.25665,-0.25665 0.31312,-0.25665 0.20019,0 0.28232,0.0565 0.32852,0.28232 0.86749,2.71028 2.55629,3.35192 3.42379,3.35192 0.48764,0 1.38081,-0.22585 1.38081,-1.70932 0,-0.79051 -0.43632,-2.5101 -1.38081,-6.08788 -0.41065,-1.58614 -1.29868,-2.65896 -2.42797,-2.65896 -0.15399,0 -0.73917,0 -1.27815,0.33365 0.64164,0.1232 1.20115,0.65704 1.20115,1.38081 0,0.68784 -0.55951,0.88803 -0.94449,0.88803 -0.76997,0 -1.41161,-0.66217 -1.41161,-1.48347 0,-1.17035 1.28328,-1.68366 2.40744,-1.68366 1.69393,0 2.60762,1.79146 2.68462,1.94032 0.30798,-0.9445 1.22681,-1.94032 2.76162,-1.94032 2.63842,0 4.09622,3.29546 4.09622,3.9371 0,0.25666 -0.23099,0.25666 -0.31312,0.25666 -0.22072,0 -0.27718,-0.10267 -0.32852,-0.27719 -0.84183,-2.73596 -2.58195,-3.35193 -3.39812,-3.35193 -1.00096,0 -1.41161,0.81617 -1.41161,1.6888 0,0.56464 0.154,1.12415 0.44145,2.2483 z"
             id="path2046"
             style="fill:#000000;stroke-width:0" />
          <polyline
             transform="matrix(0.51331189,0,0,0.51331189,11.9838,100.99235)"
             points="704,117 954.92,117 954.92,119.04 704,119.04 "
             id="polyline2048"
             style="fill:#000000;fill-rule:nonzero;stroke-width:0" />
          <path
             d="m 482.40335,142.28823 v -2.22213 c 0,-0.92191 -0.0462,-1.20269 -1.94032,-1.20269 h -0.53898 v -0.79409 c 1.05229,0.0801 2.38177,0.0801 3.45972,0.0801 1.07283,0 2.42797,0 3.46999,-0.0801 v 0.79409 h -0.53384 c -1.89412,0 -1.94545,0.28078 -1.94545,1.20269 v 2.22213 h 2.56142 v 0.79409 h -2.56142 v 11.6373 c 0,0.51331 0,0.66576 -0.40552,0.66576 -0.23612,0 -0.30285,0 -0.51331,-0.3126 l -7.85367,-11.99046 h 0.72377 l 6.23674,9.53631 v -9.53631 h -6.23674 -0.72377 v -0.79409 z"
             id="path2050"
             style="fill:#000000;stroke-width:0" />
          <path
             d="m 496.24224,145.79312 0.0154,0.0673 0.0154,0.076 0.0257,0.0852 0.0205,0.0924 0.0257,0.0991 0.0308,0.10574 0.0359,0.11088 0.0359,0.11549 0.0411,0.11961 0.0462,0.12268 0.0513,0.12525 0.0513,0.1273 0.0565,0.12781 0.0616,0.12833 0.0667,0.12781 0.0719,0.12679 0.0719,0.12422 0.0821,0.12217 0.0873,0.11858 0.0873,0.11447 0.0975,0.10933 0.10266,0.10369 0.1078,0.0975 0.11293,0.0903 0.11806,0.0827 0.12833,0.0739 0.0616,0.0334 0.0667,0.0308 0.0719,0.0287 0.0667,0.0262 0.0719,0.0231 0.0719,0.0205 0.077,0.0175 0.077,0.0144 0.077,0.0113 0.077,0.009 0.0821,0.005 0.0873,0.002 c 0.12833,0 0.73403,0 1.27301,-0.32903 -0.7135,-0.12833 -1.22681,-0.76997 -1.22681,-1.37927 0,-0.40911 0.28232,-0.8983 0.97016,-0.8983 0.55951,0 1.3808,0.45685 1.3808,1.48347 0,1.33153 -1.50913,1.68469 -2.37663,1.68469 -1.48347,0 -2.38177,-1.35565 -2.68462,-1.94134 -0.64164,1.68469 -2.02245,1.94134 -2.76162,1.94134 -2.65895,0 -4.12189,-3.29649 -4.12189,-3.93813 0,-0.25665 0.25665,-0.25665 0.31312,-0.25665 0.20019,0 0.28232,0.0559 0.32852,0.28027 0.86749,2.71131 2.56142,3.35295 3.42379,3.35295 0.49278,0 1.38081,-0.22483 1.38081,-1.7083 0,-0.7941 -0.43119,-2.51061 -1.38081,-6.08788 -0.40552,-1.58819 -1.29868,-2.66255 -2.42797,-2.66255 -0.15399,0 -0.73917,0 -1.27301,0.33673 0.64164,0.12012 1.20115,0.65756 1.20115,1.37927 0,0.68989 -0.55951,0.8906 -0.9445,0.8906 -0.76996,0 -1.4116,-0.66577 -1.4116,-1.48399 0,-1.17086 1.28328,-1.68417 2.4023,-1.68417 1.69393,0 2.60762,1.78838 2.68975,1.94083 0.30285,-0.94655 1.22682,-1.94083 2.75649,-1.94083 2.63842,0 4.10136,3.29649 4.10136,3.93813 0,0.25665 -0.23613,0.25665 -0.31312,0.25665 -0.22586,0 -0.28232,-0.1042 -0.32852,-0.28078 -0.84183,-2.73493 -2.58196,-3.35244 -3.40326,-3.35244 -1.00096,0 -1.41161,0.81771 -1.41161,1.69239 0,0.56105 0.154,1.12261 0.44145,2.24574 z"
             id="path2052"
             style="fill:#000000;stroke-width:0" />
          <path
             d="m 518.42244,143.94828 h 7.12991 c 0.35931,0 0.87263,0 0.87263,0.51331 0,0.51331 -0.51332,0.51331 -0.87263,0.51331 h -7.12991 v 7.16224 c 0,0.35316 0,0.84235 -0.51331,0.84235 -0.50818,0 -0.50818,-0.48919 -0.50818,-0.84235 v -7.16224 h -7.1607 c -0.35932,0 -0.84183,0 -0.84183,-0.51331 0,-0.51331 0.48251,-0.51331 0.84183,-0.51331 h 7.1607 v -7.15403 c 0,-0.36137 0,-0.85056 0.50818,-0.85056 0.51331,0 0.51331,0.48919 0.51331,0.85056 z"
             id="path2054"
             style="fill:#000000;stroke-width:0" />
          <path
             d="m 541.05437,154.43884 v 0.0282 0.0277 0.0262 0.0262 0.0252 0.0241 0.0236 0.0226 0.0221 0.0216 0.0205 0.02 0.0195 0.0185 0.018 0.0175 l -0.0513,0.0328 v 0.0303 0.0282 0.0262 0.0236 0.0216 0.02 l -0.0513,0.0174 v 0.0164 0.0139 l -0.0513,0.0128 v 0.0113 l -0.0513,0.01 v 0.005 0.004 0.004 l -0.0513,0.004 v 0.003 0.003 0.003 l -0.0513,0.003 v 0.002 0.002 l -0.0513,0.002 v 0.002 l -0.0513,10e-4 v 0.001 0.001 l -0.0513,0.001 v 5.1e-4 l -0.0513,5.2e-4 v 5.1e-4 h -0.0513 v 0 h -0.0513 c -1.59127,-1.63592 -3.79851,-1.63592 -4.61981,-1.63592 v -0.7941 c 0.51332,0 2.00192,0 3.33653,0.66577 v -13.25012 c 0,-0.92242 -0.10266,-1.22682 -2.36123,-1.22682 h -0.8213 v -0.79409 c 0.87263,0.0801 3.07987,0.0801 4.10649,0.0801 1.02663,0 3.2852,0 4.15783,-0.0801 v 0.79409 h -0.8213 c -2.3099,0 -2.36123,0.28078 -2.36123,1.22682 z"
             id="path2056"
             style="fill:#000000;stroke-width:0" />
          <path
             d="m 482.40335,111.61168 v -2.22171 c 0,-0.92237 -0.0513,-1.2031 -1.94032,-1.2031 h -0.53898 v -0.79399 c 1.05229,0.0802 2.38177,0.0802 3.45459,0.0802 1.07796,0 2.4331,0 3.47512,-0.0802 v 0.79399 h -0.53897 c -1.88899,0 -1.94032,0.28073 -1.94032,1.2031 v 2.22171 h 2.56142 v 0.7941 h -2.56142 v 11.6378 c 0,0.51332 0,0.66577 -0.41065,0.66577 -0.23099,0 -0.30286,0 -0.51332,-0.31312 l -7.84853,-11.99045 h 0.71863 l 6.24188,9.53631 v -9.53631 h -6.24188 -0.71863 v -0.7941 z"
             id="path2060"
             style="fill:#000000;stroke-width:0" />
          <path
             d="m 496.24224,115.11658 0.0154,0.0672 0.0154,0.0765 0.0205,0.0847 0.0257,0.0924 0.0257,0.0991 0.0308,0.10574 0.0359,0.11087 0.0359,0.1155 0.0411,0.1196 0.0462,0.12268 0.0462,0.12525 0.0513,0.1273 0.0616,0.12782 0.0616,0.12832 0.0616,0.12782 0.0719,0.12679 0.077,0.12473 0.0821,0.12166 0.0821,0.11857 0.0924,0.11447 0.0975,0.10934 0.10266,0.1042 0.10267,0.097 0.11806,0.0904 0.11806,0.0826 0.1232,0.0739 0.0667,0.0334 0.0667,0.0313 0.0667,0.0282 0.0719,0.0262 0.0719,0.0231 0.0719,0.0205 0.0719,0.0175 0.077,0.0144 0.0821,0.0118 0.077,0.008 0.0821,0.005 0.0821,0.002 c 0.12833,0 0.73917,0 1.27815,-0.32904 -0.7135,-0.12833 -1.22681,-0.76997 -1.22681,-1.37927 0,-0.40911 0.27718,-0.89829 0.97016,-0.89829 0.55951,0 1.37567,0.45736 1.37567,1.48398 0,1.33102 -1.504,1.68418 -2.3715,1.68418 -1.48347,0 -2.38177,-1.35566 -2.68462,-1.94083 -0.64164,1.68417 -2.02245,1.94083 -2.76162,1.94083 -2.66409,0 -4.12189,-3.29649 -4.12189,-3.93813 0,-0.25666 0.25665,-0.25666 0.31312,-0.25666 0.20019,0 0.28232,0.0559 0.32852,0.28079 0.86749,2.7108 2.55629,3.35244 3.42379,3.35244 0.48764,0 1.38081,-0.22432 1.38081,-1.70831 0,-0.79409 -0.43632,-2.51061 -1.38081,-6.08762 -0.41065,-1.58803 -1.29868,-2.6628 -2.42797,-2.6628 -0.15399,0 -0.73917,0 -1.27815,0.33688 0.64164,0.12032 1.20115,0.65766 1.20115,1.37953 0,0.68973 -0.55951,0.89029 -0.94449,0.89029 -0.76997,0 -1.41161,-0.66572 -1.41161,-1.48383 0,-1.17097 1.28328,-1.68428 2.40744,-1.68428 1.69393,0 2.60762,1.78858 2.68462,1.94093 0.30798,-0.94639 1.22681,-1.94093 2.76162,-1.94093 2.63842,0 4.09622,3.29643 4.09622,3.93807 0,0.25666 -0.23099,0.25666 -0.31312,0.25666 -0.22072,0 -0.27718,-0.10431 -0.32852,-0.28073 -0.84183,-2.73498 -2.58195,-3.35259 -3.39812,-3.35259 -1.00096,0 -1.41161,0.81811 -1.41161,1.69233 0,0.56146 0.154,1.12287 0.44145,2.24579 z"
             id="path2062"
             style="fill:#000000;stroke-width:0" />
          <path
             d="m 541.41368,116.6483 0.20533,0.0898 0.15399,0.0924 0.154,0.0945 0.15399,0.0965 0.15399,0.0986 0.154,0.10113 0.15399,0.10317 0.15399,0.10574 0.154,0.1078 0.10266,0.10985 0.15399,0.1119 0.10266,0.11447 0.10267,0.11652 0.15399,0.11858 0.10266,0.12062 0.10267,0.1232 0.10266,0.12525 0.10266,0.1273 0.0513,0.12935 0.10266,0.13141 0.0513,0.13398 0.10266,0.13551 0.0513,0.13808 0.0513,0.14013 0.0513,0.14219 0.0513,0.14424 0.0513,0.14681 v 0.14835 l 0.0513,0.15091 v 0.15245 0.15502 0.15656 c 0,2.35816 -2.25857,3.81802 -4.56847,3.81802 l -0.0513,-0.64164 c 1.89925,0 3.54185,-1.33153 3.54185,-3.17638 0,-1.45164 -1.02662,-2.67897 -2.56656,-3.57727 l -3.1312,2.04555 c -1.18062,0.76997 -1.28328,1.63593 -1.28328,2.06916 0,1.56406 1.6426,2.63894 3.43919,2.63894 l 0.0513,0.64164 c -2.56656,0 -4.61981,-1.8931 -4.61981,-4.27486 0,-0.45736 0.0513,-1.61232 1.12929,-2.81552 0.25665,-0.30491 1.23195,-0.94655 1.84792,-1.37927 l 0.56464,-0.38498 3.18254,-1.98908 c 0.71863,-0.4897 1.89925,-1.25967 1.89925,-2.81537 0,-1.89283 -1.89925,-3.22426 -4.00383,-3.22426 -2.20724,0 -4.05517,1.58808 -4.05517,3.70549 0,1.48358 0.8213,3.12002 2.97721,4.32322 v 0 l -0.56464,0.38498 c -1.4886,-0.73814 -3.69584,-2.17387 -3.69584,-4.7082 0,-2.71095 2.61789,-4.4193 5.28711,-4.4193 2.92588,0 5.33844,2.12542 5.33844,4.86034 0,0.91421 -0.30799,2.06916 -1.23195,3.14404 -0.51331,0.53743 -0.92396,0.79409 -2.56656,1.8125 z"
             id="path2066"
             style="fill:#000000;stroke-width:0" />
          <polyline
             transform="matrix(0.51331189,0,0,0.51331189,13.747689,99.228461)"
             points="841,-18 1041.2,-18 1041.2,-15.961 841,-15.961 "
             id="polyline2068"
             style="fill:#000000;fill-rule:nonzero;stroke-width:0" />
          <path
             d="m 524.81831,71.430361 h 0.077 l 0.0821,10e-4 0.0821,0.0021 0.0411,0.0021 0.0411,0.0026 0.0359,0.0036 0.0411,0.0041 0.0359,0.0051 0.0359,0.0062 0.0565,0.0077 v 0.0082 l 0.0513,0.01027 0.0513,0.01129 v 0.01283 l 0.0513,0.01437 v 0.01591 l 0.0513,0.01797 v 0.01951 l 0.0513,0.02207 v 0.02361 l 0.0513,0.02618 v 0.01335 0.01489 0.01489 0.0154 0.01643 l 0.0513,0.01643 v 0.01745 0.01848 0.01848 0.01951 0.02002 0.02105 0.02156 0.02207 0.0231 0.02361 c 0,0.513312 -0.45685,0.513312 -0.88803,0.513312 h -13.83889 c -0.43118,0 -0.88803,0 -0.88803,-0.513312 0,-0.513312 0.45685,-0.513312 0.88803,-0.513312 z"
             id="path2070"
             style="fill:#000000;stroke-width:0" />
          <path
             d="m 545.7255,81.126823 v 0.02823 0.02618 l 0.0513,0.02515 v 0.02413 0.02361 l 0.0513,0.02207 v 0.02156 0.02156 0.02053 l 0.0513,0.02053 v 0.02002 0.02053 0.02053 0.02053 0.02105 0.02207 l 0.0513,0.02207 v 0.0231 0.02413 0.02515 0.02669 0.02772 0.02926 0.03131 0.03234 0.03491 0.03645 0.03901 0.04106 0.04363 0.0462 0.02413 0.02515 h -6.21108 c -3.1312,0 -3.18253,0.336733 -3.28519,0.817706 h -0.61598 l -0.87263,-5.261447 h 0.66731 c 0.0513,0.40911 0.30799,2.021422 0.61597,2.326329 0.20533,0.152454 2.20724,0.152454 2.51523,0.152454 h 5.28711 c -0.25665,-0.409109 -2.3099,-3.2005 -2.87454,-4.042331 -2.30991,-3.448943 -3.13121,-7.010301 -3.13121,-9.616898 0,-0.256656 0,-1.403395 1.18062,-1.403395 1.18062,0 1.18062,1.146739 1.18062,1.403395 v 1.307405 c 0,1.403395 0.0513,2.815003 0.25666,4.194785 0.10266,0.585689 0.46198,2.783177 1.59126,4.371364 z"
             id="path2072"
             style="fill:#000000;stroke-width:0" />
          <path
             style="fill:#000000;stroke-width:0"
             id="path2228"
             d="m 389.47991,259.11657 h 7.14016 c 0.35419,0 0.84184,0 0.84184,0.51332 0,0.51331 -0.48765,0.51331 -0.84184,0.51331 h -7.14016 v 7.16583 c 0,0.34905 0,0.84183 -0.51332,0.84183 -0.50304,0 -0.50304,-0.49278 -0.50304,-0.84183 v -7.16583 h -7.16584 c -0.35931,0 -0.84183,0 -0.84183,-0.51331 0,-0.51332 0.48252,-0.51332 0.84183,-0.51332 h 7.16584 v -7.15043 c 0,-0.36445 0,-0.8521 0.50304,-0.8521 0.51332,0 0.51332,0.48765 0.51332,0.8521 z" />
          <path
             style="fill:#000000;stroke-width:0"
             id="path2234"
             d="m 396.07692,189.119 0.0821,5.2e-4 0.0821,5.1e-4 0.077,0.003 0.0411,0.002 0.0411,0.003 0.0359,0.004 0.0411,0.004 0.0359,0.005 0.0359,0.006 0.0359,0.007 0.0359,0.009 0.0359,0.01 0.0308,0.0113 0.0308,0.0128 0.0308,0.0144 0.0257,0.0164 0.0308,0.0174 0.0257,0.02 0.0205,0.0216 0.0205,0.0241 0.0205,0.0257 0.0103,0.0139 0.0103,0.0144 0.005,0.0149 0.0103,0.0159 0.005,0.0159 0.0103,0.0169 0.005,0.0174 0.005,0.018 0.005,0.019 v 0.0195 l 0.005,0.02 0.005,0.0205 v 0.0216 l 0.005,0.0221 v 0.0231 0.0236 c 0,0.51331 -0.46712,0.51331 -0.8983,0.51331 h -13.83266 c -0.43631,0 -0.89316,0 -0.89316,-0.51331 0,-0.51332 0.45685,-0.51332 0.89316,-0.51332 z" />
          <path
             style="fill:#000000;stroke-width:0"
             id="path2236"
             d="m 464.84092,189.119 0.0821,5.2e-4 0.0821,5.1e-4 0.077,0.003 0.0411,0.002 0.0411,0.003 0.0359,0.004 0.0411,0.004 0.0359,0.005 0.0359,0.006 0.0616,0.007 v 0.009 l 0.0513,0.01 0.0513,0.0113 v 0.0128 l 0.0513,0.0144 v 0.0164 l 0.0513,0.0174 v 0.02 l 0.0513,0.0216 v 0.0241 l 0.0513,0.0257 v 0.0139 0.0144 0.0149 0.0159 0.0159 0.0169 l 0.0513,0.0174 v 0.018 0.019 0.0195 0.02 0.0205 0.0216 0.0221 0.0231 0.0236 c 0,0.51331 -0.46198,0.51331 -0.89316,0.51331 h -13.83889 c -0.43118,0 -0.88803,0 -0.88803,-0.51331 0,-0.51332 0.45685,-0.51332 0.88803,-0.51332 z" />
          <path
             style="fill:#ff0000;fill-opacity:1;stroke:#ff0000;stroke-width:0.5291667;stroke-miterlimit:10.43299961;stroke-dasharray:none;stroke-opacity:1"
             id="path2238"
             d="m 389.23123,173.50146 h 7.13503 c 0.35419,0 0.84183,0 0.84183,0.51331 0,0.51331 -0.48764,0.51331 -0.84183,0.51331 h -7.13503 v 7.16584 c 0,0.34905 0,0.84183 -0.51332,0.84183 -0.50817,0 -0.50817,-0.49278 -0.50817,-0.84183 v -7.16584 h -7.1607 c -0.36446,0 -0.84184,0 -0.84184,-0.51331 0,-0.51331 0.47738,-0.51331 0.84184,-0.51331 h 7.1607 v -7.15043 c 0,-0.36446 0,-0.8521 0.50817,-0.8521 0.51332,0 0.51332,0.48764 0.51332,0.8521 z" />
          <path
             style="fill:#000000;stroke-width:0"
             id="path2240"
             d="m 518.42244,113.96215 h 7.12991 c 0.35931,0 0.87263,0 0.87263,0.51331 0,0.51331 -0.51332,0.51331 -0.87263,0.51331 h -7.12991 v 7.16224 c 0,0.35316 0,0.84235 -0.51331,0.84235 -0.50818,0 -0.50818,-0.48919 -0.50818,-0.84235 v -7.16224 h -7.1607 c -0.35932,0 -0.84183,0 -0.84183,-0.51331 0,-0.51331 0.48251,-0.51331 0.84183,-0.51331 h 7.1607 v -7.15403 c 0,-0.36137 0,-0.85056 0.50818,-0.85056 0.51331,0 0.51331,0.48919 0.51331,0.85056 z" />
          <path
             style="fill:#ff0000;fill-opacity:1;stroke:#ff0000;stroke-width:0.5291667;stroke-miterlimit:10.43299961;stroke-dasharray:none;stroke-opacity:1"
             id="path2242"
             d="m 479.84368,97.913202 h 0.0821 0.077 l 0.0821,0.005 h 0.0411 l 0.0411,0.005 h 0.0359 l 0.0411,0.005 0.0359,0.005 0.0359,0.005 0.0359,0.0103 0.0359,0.0103 0.0359,0.0103 0.0308,0.0103 0.0308,0.0103 0.0308,0.0154 0.0257,0.0154 0.0308,0.0205 0.0257,0.0154 0.0205,0.0257 0.0205,0.0205 0.0205,0.0257 0.0103,0.0154 0.0103,0.0154 0.005,0.0154 0.0103,0.0154 0.005,0.0154 0.005,0.0154 0.0103,0.0205 0.005,0.0154 0.005,0.0205 v 0.0205 l 0.005,0.0205 0.005,0.0205 v 0.0205 0.0205 l 0.005,0.0257 v 0.0205 c 0,0.51331 -0.46711,0.51331 -0.8983,0.51331 H 466.0048 c -0.43119,0 -0.88803,0 -0.88803,-0.51331 0,-0.513299 0.45684,-0.513299 0.88803,-0.513299 z" />
          <path
             style="fill:#ff0000;fill-opacity:1;stroke:#ff0000;stroke-width:0.5291667;stroke-miterlimit:10.43299961;stroke-dasharray:none;stroke-opacity:1"
             id="path2244"
             d="m 524.99269,97.913202 h 0.0821 0.0821 l 0.077,0.005 h 0.0411 l 0.0411,0.005 h 0.0359 l 0.0411,0.005 0.0359,0.005 0.0359,0.005 0.0359,0.0103 0.0359,0.0103 0.0359,0.0103 0.0308,0.0103 0.0308,0.0103 0.0308,0.0154 0.0308,0.0154 0.0257,0.0205 0.0257,0.0154 0.0205,0.0257 0.0257,0.0205 0.0205,0.0257 0.005,0.0154 0.0103,0.0154 0.0103,0.0154 0.005,0.0154 0.005,0.0154 0.0103,0.0154 0.005,0.0205 0.005,0.0154 0.005,0.0205 0.005,0.0205 v 0.0205 l 0.005,0.0205 v 0.0205 l 0.005,0.0205 v 0.0257 0.0205 c 0,0.51331 -0.46711,0.51331 -0.89829,0.51331 h -13.83376 c -0.43631,0 -0.89316,0 -0.89316,-0.51331 0,-0.513305 0.45685,-0.513305 0.89316,-0.513305 z" />
        </g>
      </g>
    </g>
  </g>
</svg>
